Figtree-BlackItalic.ufo
<glyph name="exclam" format="2">
  <advance width="326"/>
  <unicode hex="0021"/>
  <outline>
    <contour>
      <point x="78" y="251" type="line"/>
      <point x="248" y="251" type="line"/>
      <point x="339" y="700" type="line"/>
      <point x="139" y="700" type="line"/>
    </contour>
    <contour>
      <point x="131" y="-16" type="curve" smooth="yes"/>
      <point x="181" y="-16"/>
      <point x="228" y="26"/>
      <point x="237" y="76" type="curve" smooth="yes"/>
      <point x="247" y="138"/>
      <point x="203" y="190"/>
      <point x="141" y="190" type="curve" smooth="yes"/>
      <point x="91" y="190"/>
      <point x="43" y="148"/>
      <point x="35" y="98" type="curve" smooth="yes"/>
      <point x="24" y="36"/>
      <point x="69" y="-16"/>
    </contour>
  </outline>
</glyph>
<glyph name="numbersign" format="2">
  <advance width="634"/>
  <unicode hex="0023"/>
  <outline>
    <contour>
      <point x="260" y="0" type="line"/>
      <point x="389" y="0" type="line"/>
      <point x="616" y="700" type="line"/>
      <point x="487" y="700" type="line"/>
    </contour>
    <contour>
      <point x="-4" y="169" type="line"/>
      <point x="559" y="169" type="line"/>
      <point x="598" y="295" type="line"/>
      <point x="35" y="295" type="line"/>
    </contour>
    <contour>
      <point x="55" y="0" type="line"/>
      <point x="184" y="0" type="line"/>
      <point x="411" y="700" type="line"/>
      <point x="282" y="700" type="line"/>
    </contour>
    <contour>
      <point x="58" y="373" type="line"/>
      <point x="622" y="373" type="line"/>
      <point x="666" y="500" type="line"/>
      <point x="102" y="500" type="line"/>
    </contour>
  </outline>
</glyph>
<glyph name="percent" format="2">
  <advance width="837"/>
  <unicode hex="0025"/>
  <outline>
    <contour>
      <point x="38" y="0" type="line"/>
      <point x="208" y="0" type="line"/>
      <point x="825" y="700" type="line"/>
      <point x="652" y="700" type="line"/>
    </contour>
    <contour>
      <point x="233" y="352" type="curve" smooth="yes"/>
      <point x="326" y="352"/>
      <point x="401" y="422"/>
      <point x="418" y="521" type="curve" smooth="yes"/>
      <point x="437" y="632"/>
      <point x="374" y="712"/>
      <point x="269" y="712" type="curve" smooth="yes"/>
      <point x="176" y="712"/>
      <point x="100" y="642"/>
      <point x="84" y="543" type="curve" smooth="yes"/>
      <point x="65" y="432"/>
      <point x="128" y="352"/>
    </contour>
    <contour>
      <point x="227" y="463" type="curve" smooth="yes"/>
      <point x="201" y="463"/>
      <point x="190" y="488"/>
      <point x="196" y="521" type="curve" smooth="yes"/>
      <point x="203" y="566"/>
      <point x="237" y="601"/>
      <point x="275" y="601" type="curve" smooth="yes"/>
      <point x="301" y="601"/>
      <point x="311" y="576"/>
      <point x="306" y="543" type="curve" smooth="yes"/>
      <point x="298" y="498"/>
      <point x="265" y="463"/>
    </contour>
    <contour>
      <point x="601" y="-12" type="curve" smooth="yes"/>
      <point x="694" y="-12"/>
      <point x="769" y="58"/>
      <point x="786" y="157" type="curve" smooth="yes"/>
      <point x="804" y="268"/>
      <point x="742" y="348"/>
      <point x="637" y="348" type="curve" smooth="yes"/>
      <point x="544" y="348"/>
      <point x="468" y="278"/>
      <point x="452" y="179" type="curve" smooth="yes"/>
      <point x="433" y="68"/>
      <point x="496" y="-12"/>
    </contour>
    <contour>
      <point x="595" y="99" type="curve" smooth="yes"/>
      <point x="569" y="99"/>
      <point x="558" y="124"/>
      <point x="564" y="157" type="curve" smooth="yes"/>
      <point x="571" y="202"/>
      <point x="604" y="237"/>
      <point x="643" y="237" type="curve" smooth="yes"/>
      <point x="668" y="237"/>
      <point x="679" y="212"/>
      <point x="674" y="179" type="curve" smooth="yes"/>
      <point x="666" y="134"/>
      <point x="633" y="99"/>
    </contour>
  </outline>
</glyph>
<glyph name="ampersand" format="2">
  <advance width="649"/>
  <unicode hex="0026"/>
  <outline>
    <contour>
      <point x="217" y="-12" type="curve" smooth="yes"/>
      <point x="439" y="-12"/>
      <point x="614" y="111"/>
      <point x="644" y="292" type="curve"/>
      <point x="484" y="302" type="line"/>
      <point x="465" y="188"/>
      <point x="327" y="136"/>
      <point x="232" y="136" type="curve" smooth="yes"/>
      <point x="209" y="136"/>
      <point x="197" y="151"/>
      <point x="201" y="173" type="curve" smooth="yes"/>
      <point x="206" y="200"/>
      <point x="225" y="227"/>
      <point x="247" y="241" type="curve" smooth="yes"/>
      <point x="326" y="289" type="line" smooth="yes"/>
      <point x="482" y="387"/>
      <point x="547" y="441"/>
      <point x="560" y="519" type="curve" smooth="yes"/>
      <point x="579" y="632"/>
      <point x="492" y="712"/>
      <point x="352" y="712" type="curve" smooth="yes"/>
      <point x="237" y="712"/>
      <point x="137" y="644"/>
      <point x="121" y="548" type="curve" smooth="yes"/>
      <point x="113" y="503"/>
      <point x="124" y="465"/>
      <point x="175" y="384" type="curve"/>
      <point x="301" y="188" type="line"/>
      <point x="425" y="0" type="line"/>
      <point x="623" y="0" type="line"/>
      <point x="428" y="290" type="line"/>
      <point x="313" y="456" type="line"/>
      <point x="300" y="483"/>
      <point x="283" y="501"/>
      <point x="287" y="524" type="curve" smooth="yes"/>
      <point x="292" y="555"/>
      <point x="325" y="575"/>
      <point x="364" y="575" type="curve" smooth="yes"/>
      <point x="386" y="575"/>
      <point x="402" y="566"/>
      <point x="402" y="547" type="curve" smooth="yes"/>
      <point x="402" y="513"/>
      <point x="366" y="486"/>
      <point x="324" y="461" type="curve" smooth="yes"/>
      <point x="134" y="345" type="line" smooth="yes"/>
      <point x="71" y="305"/>
      <point x="29" y="245"/>
      <point x="20" y="190" type="curve" smooth="yes"/>
      <point x="0" y="72"/>
      <point x="83" y="-12"/>
    </contour>
  </outline>
</glyph>
<glyph name="quotesingle" format="2">
  <advance width="287"/>
  <unicode hex="0027"/>
  <outline>
    <contour>
      <point x="112" y="440" type="line"/>
      <point x="239" y="440" type="line"/>
      <point x="305" y="716" type="line"/>
      <point x="138" y="716" type="line"/>
    </contour>
  </outline>
</glyph>
<glyph name="parenleft" format="2">
  <advance width="416"/>
  <unicode hex="0028"/>
  <outline>
    <contour>
      <point x="154" y="-100" type="curve"/>
      <point x="314" y="-100" type="line"/>
      <point x="245" y="27"/>
      <point x="202" y="181"/>
      <point x="229" y="339" type="curve" smooth="yes"/>
      <point x="258" y="511"/>
      <point x="362" y="669"/>
      <point x="478" y="800" type="curve"/>
      <point x="291" y="800" type="line"/>
      <point x="178" y="678"/>
      <point x="87" y="528"/>
      <point x="59" y="361" type="curve" smooth="yes"/>
      <point x="28" y="181"/>
      <point x="80" y="23"/>
    </contour>
  </outline>
</glyph>
<glyph name="asterisk" format="2">
  <advance width="494"/>
  <unicode hex="002A"/>
  <outline>
    <contour>
      <point x="254" y="518" type="line"/>
      <point x="334" y="518" type="line"/>
      <point x="388" y="716" type="line"/>
      <point x="268" y="716" type="line"/>
    </contour>
    <contour>
      <point x="301" y="480" type="line"/>
      <point x="500" y="522" type="line"/>
      <point x="481" y="636" type="line"/>
      <point x="289" y="556" type="line"/>
    </contour>
    <contour>
      <point x="333" y="324" type="line"/>
      <point x="438" y="395" type="line"/>
      <point x="326" y="543" type="line"/>
      <point x="259" y="496" type="line"/>
    </contour>
    <contour>
      <point x="198" y="323" type="line"/>
      <point x="324" y="495" type="line"/>
      <point x="262" y="542" type="line"/>
      <point x="108" y="393" type="line"/>
    </contour>
    <contour>
      <point x="277" y="480" type="line"/>
      <point x="313" y="556" type="line"/>
      <point x="141" y="636" type="line"/>
      <point x="86" y="522" type="line"/>
    </contour>
  </outline>
</glyph>
<glyph name="plus" format="2">
  <advance width="640"/>
  <unicode hex="002B"/>
  <outline>
    <contour>
      <point x="219" y="63" type="line"/>
      <point x="359" y="63" type="line"/>
      <point x="437" y="533" type="line"/>
      <point x="297" y="533" type="line"/>
    </contour>
    <contour>
      <point x="81" y="228" type="line"/>
      <point x="551" y="228" type="line"/>
      <point x="575" y="368" type="line"/>
      <point x="105" y="368" type="line"/>
    </contour>
  </outline>
</glyph>
<glyph name="comma" format="2">
  <advance width="289"/>
  <unicode hex="002C"/>
  <outline>
    <contour>
      <point x="-43" y="-113" type="line"/>
      <point x="90" y="-113" type="line"/>
      <point x="250" y="146" type="line"/>
      <point x="66" y="146" type="line"/>
    </contour>
  </outline>
</glyph>
<glyph name="hyphen" format="2">
  <advance width="400"/>
  <unicode hex="002D"/>
  <outline>
    <contour>
      <point x="45" y="223" type="line"/>
      <point x="345" y="223" type="line"/>
      <point x="371" y="373" type="line"/>
      <point x="71" y="373" type="line"/>
    </contour>
  </outline>
</glyph>
<glyph name="period" format="2">
  <advance width="286"/>
  <unicode hex="002E"/>
  <outline>
    <contour>
      <point x="111" y="-15" type="curve" smooth="yes"/>
      <point x="161" y="-15"/>
      <point x="209" y="27"/>
      <point x="217" y="77" type="curve" smooth="yes"/>
      <point x="227" y="139"/>
      <point x="183" y="191"/>
      <point x="121" y="191" type="curve" smooth="yes"/>
      <point x="71" y="191"/>
      <point x="23" y="149"/>
      <point x="15" y="99" type="curve" smooth="yes"/>
      <point x="4" y="37"/>
      <point x="49" y="-15"/>
    </contour>
  </outline>
</glyph>
<glyph name="slash" format="2">
  <advance width="476"/>
  <unicode hex="002F"/>
  <outline>
    <contour>
      <point x="-41" y="-84" type="line"/>
      <point x="131" y="-84" type="line"/>
      <point x="544" y="747" type="line"/>
      <point x="374" y="747" type="line"/>
    </contour>
  </outline>
</glyph>
<glyph name="zero" format="2">
  <advance width="655"/>
  <unicode hex="0030"/>
  <outline>
    <contour>
      <point x="295" y="-12" type="curve" smooth="yes"/>
      <point x="466" y="-12"/>
      <point x="610" y="133"/>
      <point x="645" y="339" type="curve" smooth="yes"/>
      <point x="681" y="557"/>
      <point x="575" y="712"/>
      <point x="390" y="712" type="curve" smooth="yes"/>
      <point x="220" y="712"/>
      <point x="78" y="567"/>
      <point x="44" y="361" type="curve" smooth="yes"/>
      <point x="7" y="143"/>
      <point x="112" y="-12"/>
    </contour>
    <contour>
      <point x="299" y="156" type="curve" smooth="yes"/>
      <point x="234" y="156"/>
      <point x="202" y="231"/>
      <point x="220" y="339" type="curve" smooth="yes"/>
      <point x="240" y="460"/>
      <point x="311" y="546"/>
      <point x="387" y="546" type="curve" smooth="yes"/>
      <point x="454" y="546"/>
      <point x="487" y="470"/>
      <point x="469" y="361" type="curve" smooth="yes"/>
      <point x="449" y="241"/>
      <point x="377" y="156"/>
    </contour>
  </outline>
</glyph>
<glyph name="one" format="2">
  <advance width="436"/>
  <unicode hex="0031"/>
  <outline>
    <contour>
      <point x="139" y="0" type="line"/>
      <point x="314" y="0" type="line"/>
      <point x="431" y="700" type="line"/>
      <point x="274" y="700" type="line"/>
      <point x="239" y="601" type="line"/>
    </contour>
    <contour>
      <point x="72" y="442" type="line"/>
      <point x="182" y="430"/>
      <point x="283" y="496"/>
      <point x="378" y="587" type="curve"/>
      <point x="274" y="700" type="line"/>
      <point x="229" y="655"/>
      <point x="154" y="602"/>
      <point x="100" y="608" type="curve"/>
    </contour>
  </outline>
</glyph>
<glyph name="two" format="2">
  <advance width="598"/>
  <unicode hex="0032"/>
  <outline>
    <contour>
      <point x="187" y="6" type="line"/>
      <point x="205" y="125"/>
      <point x="294" y="188"/>
      <point x="357" y="224" type="curve" smooth="yes"/>
      <point x="422" y="261" type="line" smooth="yes"/>
      <point x="516" y="315"/>
      <point x="583" y="379"/>
      <point x="598" y="473" type="curve" smooth="yes"/>
      <point x="622" y="615"/>
      <point x="530" y="713"/>
      <point x="355" y="713" type="curve" smooth="yes"/>
      <point x="208" y="713"/>
      <point x="100" y="621"/>
      <point x="64" y="513" type="curve"/>
      <point x="251" y="472" type="line"/>
      <point x="266" y="508"/>
      <point x="304" y="543"/>
      <point x="351" y="543" type="curve" smooth="yes"/>
      <point x="393" y="543"/>
      <point x="417" y="523"/>
      <point x="412" y="493" type="curve" smooth="yes"/>
      <point x="404" y="448"/>
      <point x="341" y="407"/>
      <point x="302" y="385" type="curve" smooth="yes"/>
      <point x="223" y="340" type="line" smooth="yes"/>
      <point x="116" y="279"/>
      <point x="37" y="196"/>
      <point x="27" y="135" type="curve"/>
    </contour>
    <contour>
      <point x="4" y="0" type="line"/>
      <point x="526" y="0" type="line"/>
      <point x="553" y="162" type="line"/>
      <point x="168" y="162" type="line"/>
      <point x="27" y="135" type="line"/>
    </contour>
  </outline>
</glyph>
<glyph name="three" format="2">
  <advance width="566"/>
  <unicode hex="0033"/>
  <outline>
    <contour>
      <point x="259" y="-12" type="curve" smooth="yes"/>
      <point x="377" y="-12"/>
      <point x="503" y="52"/>
      <point x="523" y="175" type="curve" smooth="yes"/>
      <point x="545" y="305"/>
      <point x="411" y="395"/>
      <point x="260" y="395" type="curve" smooth="yes"/>
      <point x="211" y="395" type="line"/>
      <point x="192" y="278" type="line"/>
      <point x="260" y="278" type="line" smooth="yes"/>
      <point x="352" y="278"/>
      <point x="350" y="247"/>
      <point x="345" y="223" type="curve" smooth="yes"/>
      <point x="338" y="177"/>
      <point x="301" y="147"/>
      <point x="249" y="147" type="curve" smooth="yes"/>
      <point x="195" y="147"/>
      <point x="193" y="189"/>
      <point x="189" y="212" type="curve"/>
      <point x="9" y="186" type="line"/>
      <point x="6" y="58"/>
      <point x="111" y="-12"/>
    </contour>
    <contour>
      <point x="199" y="320" type="line"/>
      <point x="260" y="320" type="line" smooth="yes"/>
      <point x="392" y="320"/>
      <point x="547" y="373"/>
      <point x="568" y="503" type="curve" smooth="yes"/>
      <point x="589" y="628"/>
      <point x="489" y="712"/>
      <point x="348" y="712" type="curve" smooth="yes"/>
      <point x="237" y="712"/>
      <point x="109" y="652"/>
      <point x="69" y="522" type="curve"/>
      <point x="240" y="476" type="line"/>
      <point x="260" y="537"/>
      <point x="309" y="553"/>
      <point x="342" y="553" type="curve" smooth="yes"/>
      <point x="372" y="553"/>
      <point x="389" y="534"/>
      <point x="384" y="505" type="curve" smooth="yes"/>
      <point x="376" y="458"/>
      <point x="346" y="427"/>
      <point x="272" y="427" type="curve" smooth="yes"/>
      <point x="217" y="427" type="line"/>
    </contour>
  </outline>
</glyph>
<glyph name="four" format="2">
  <advance width="646"/>
  <unicode hex="0034"/>
  <outline>
    <contour>
      <point x="137" y="191" type="line"/>
      <point x="477" y="597" type="line"/>
      <point x="391" y="700" type="line"/>
      <point x="12" y="257" type="line"/>
    </contour>
    <contour>
      <point x="-13" y="108" type="line"/>
      <point x="592" y="108" type="line"/>
      <point x="619" y="265" type="line"/>
      <point x="111" y="265" type="line"/>
      <point x="12" y="257" type="line"/>
    </contour>
    <contour>
      <point x="297" y="0" type="line"/>
      <point x="471" y="0" type="line"/>
      <point x="588" y="700" type="line"/>
      <point x="391" y="700" type="line"/>
      <point x="400" y="605" type="line"/>
    </contour>
  </outline>
</glyph>
<glyph name="five" format="2">
  <advance width="586"/>
  <unicode hex="0035"/>
  <outline>
    <contour>
      <point x="263" y="-12" type="curve" smooth="yes"/>
      <point x="410" y="-12"/>
      <point x="528" y="85"/>
      <point x="552" y="228" type="curve" smooth="yes"/>
      <point x="573" y="354"/>
      <point x="492" y="441"/>
      <point x="384" y="444" type="curve" smooth="yes"/>
      <point x="247" y="448"/>
      <point x="160" y="350"/>
      <point x="138" y="310" type="curve"/>
      <point x="218" y="283" type="line"/>
      <point x="356" y="694" type="line"/>
      <point x="173" y="694" type="line"/>
      <point x="178" y="532" type="line"/>
      <point x="561" y="532" type="line"/>
      <point x="589" y="700" type="line"/>
      <point x="173" y="700" type="line"/>
      <point x="57" y="305" type="line"/>
      <point x="220" y="264" type="line"/>
      <point x="234" y="284"/>
      <point x="263" y="308"/>
      <point x="303" y="308" type="curve" smooth="yes"/>
      <point x="347" y="308"/>
      <point x="367" y="276"/>
      <point x="361" y="239" type="curve" smooth="yes"/>
      <point x="352" y="184"/>
      <point x="307" y="148"/>
      <point x="253" y="148" type="curve" smooth="yes"/>
      <point x="227" y="148"/>
      <point x="201" y="156"/>
      <point x="195" y="184" type="curve"/>
      <point x="15" y="158" type="line"/>
      <point x="26" y="54"/>
      <point x="147" y="-12"/>
    </contour>
  </outline>
</glyph>
<glyph name="six" format="2">
  <advance width="593"/>
  <unicode hex="0036"/>
  <outline>
    <contour>
      <point x="267" y="-12" type="curve" smooth="yes"/>
      <point x="424" y="-12"/>
      <point x="534" y="80"/>
      <point x="555" y="203" type="curve" smooth="yes"/>
      <point x="578" y="343"/>
      <point x="498" y="457"/>
      <point x="359" y="457" type="curve" smooth="yes"/>
      <point x="285" y="457"/>
      <point x="222" y="417"/>
      <point x="180" y="351" type="curve"/>
      <point x="216" y="322" type="line"/>
      <point x="242" y="482"/>
      <point x="314" y="551"/>
      <point x="393" y="551" type="curve" smooth="yes"/>
      <point x="420" y="551"/>
      <point x="467" y="544"/>
      <point x="504" y="517" type="curve"/>
      <point x="605" y="647" type="line"/>
      <point x="551" y="687"/>
      <point x="481" y="712"/>
      <point x="397" y="712" type="curve" smooth="yes"/>
      <point x="171" y="712"/>
      <point x="72" y="503"/>
      <point x="41" y="316" type="curve" smooth="yes"/>
      <point x="10" y="129"/>
      <point x="78" y="-12"/>
    </contour>
    <contour>
      <point x="270" y="142" type="curve" smooth="yes"/>
      <point x="231" y="142"/>
      <point x="206" y="173"/>
      <point x="213" y="213" type="curve" smooth="yes"/>
      <point x="222" y="266"/>
      <point x="271" y="310"/>
      <point x="322" y="310" type="curve" smooth="yes"/>
      <point x="360" y="310"/>
      <point x="383" y="276"/>
      <point x="376" y="235" type="curve" smooth="yes"/>
      <point x="368" y="183"/>
      <point x="320" y="142"/>
    </contour>
  </outline>
</glyph>
<glyph name="seven" format="2">
  <advance width="573"/>
  <unicode hex="0037"/>
  <outline>
    <contour>
      <point x="60" y="0" type="line"/>
      <point x="269" y="0" type="line"/>
      <point x="597" y="570" type="line"/>
      <point x="382" y="530" type="line"/>
    </contour>
    <contour>
      <point x="72" y="530" type="line"/>
      <point x="384" y="530" type="line"/>
      <point x="597" y="570" type="line"/>
      <point x="618" y="700" type="line"/>
      <point x="100" y="700" type="line"/>
    </contour>
  </outline>
</glyph>
<glyph name="eight" format="2">
  <advance width="610"/>
  <unicode hex="0038"/>
  <outline>
    <contour>
      <point x="272" y="-12" type="curve" smooth="yes"/>
      <point x="451" y="-12"/>
      <point x="548" y="62"/>
      <point x="567" y="171" type="curve" smooth="yes"/>
      <point x="589" y="304"/>
      <point x="507" y="397"/>
      <point x="316" y="396" type="curve" smooth="yes"/>
      <point x="137" y="397"/>
      <point x="41" y="314"/>
      <point x="20" y="193" type="curve" smooth="yes"/>
      <point x="0" y="72"/>
      <point x="81" y="-12"/>
    </contour>
    <contour>
      <point x="273" y="140" type="curve" smooth="yes"/>
      <point x="230" y="140"/>
      <point x="206" y="164"/>
      <point x="211" y="198" type="curve" smooth="yes"/>
      <point x="220" y="252"/>
      <point x="268" y="290"/>
      <point x="323" y="290" type="curve" smooth="yes"/>
      <point x="367" y="290"/>
      <point x="392" y="262"/>
      <point x="385" y="220" type="curve" smooth="yes"/>
      <point x="377" y="174"/>
      <point x="329" y="140"/>
    </contour>
    <contour>
      <point x="331" y="337" type="curve" smooth="yes"/>
      <point x="491" y="337"/>
      <point x="586" y="407"/>
      <point x="604" y="511" type="curve" smooth="yes"/>
      <point x="623" y="629"/>
      <point x="541" y="712"/>
      <point x="369" y="712" type="curve" smooth="yes"/>
      <point x="209" y="712"/>
      <point x="115" y="639"/>
      <point x="97" y="533" type="curve" smooth="yes"/>
      <point x="78" y="417"/>
      <point x="159" y="337"/>
    </contour>
    <contour>
      <point x="321" y="427" type="curve" smooth="yes"/>
      <point x="283" y="427"/>
      <point x="264" y="452"/>
      <point x="270" y="488" type="curve" smooth="yes"/>
      <point x="277" y="534"/>
      <point x="319" y="567"/>
      <point x="369" y="567" type="curve" smooth="yes"/>
      <point x="407" y="567"/>
      <point x="429" y="544"/>
      <point x="423" y="510" type="curve" smooth="yes"/>
      <point x="416" y="462"/>
      <point x="371" y="427"/>
    </contour>
  </outline>
</glyph>
<glyph name="colon" format="2">
  <advance width="346"/>
  <unicode hex="003A"/>
  <outline>
    <contour>
      <point x="193" y="294" type="curve" smooth="yes"/>
      <point x="242" y="294"/>
      <point x="290" y="336"/>
      <point x="299" y="386" type="curve" smooth="yes"/>
      <point x="309" y="448"/>
      <point x="265" y="500"/>
      <point x="203" y="500" type="curve" smooth="yes"/>
      <point x="153" y="500"/>
      <point x="105" y="458"/>
      <point x="96" y="408" type="curve" smooth="yes"/>
      <point x="86" y="346"/>
      <point x="130" y="294"/>
    </contour>
    <contour>
      <point x="143" y="-1" type="curve" smooth="yes"/>
      <point x="193" y="-1"/>
      <point x="241" y="41"/>
      <point x="249" y="91" type="curve" smooth="yes"/>
      <point x="260" y="153"/>
      <point x="215" y="205"/>
      <point x="153" y="205" type="curve" smooth="yes"/>
      <point x="103" y="205"/>
      <point x="56" y="163"/>
      <point x="47" y="113" type="curve" smooth="yes"/>
      <point x="37" y="51"/>
      <point x="81" y="-1"/>
    </contour>
  </outline>
</glyph>
<glyph name="semicolon" format="2">
  <advance width="347"/>
  <unicode hex="003B"/>
  <outline>
    <contour>
      <point x="193" y="290" type="curve" smooth="yes"/>
      <point x="243" y="290"/>
      <point x="291" y="332"/>
      <point x="299" y="382" type="curve" smooth="yes"/>
      <point x="309" y="444"/>
      <point x="265" y="496"/>
      <point x="203" y="496" type="curve" smooth="yes"/>
      <point x="153" y="496"/>
      <point x="105" y="454"/>
      <point x="97" y="404" type="curve" smooth="yes"/>
      <point x="86" y="342"/>
      <point x="131" y="290"/>
    </contour>
    <component base="comma" xOffset="10"/>
  </outline>
</glyph>
<glyph name="equal" format="2">
  <advance width="640"/>
  <unicode hex="003D"/>
  <outline>
    <contour>
      <point x="133" y="328" type="line"/>
      <point x="533" y="328" type="line"/>
      <point x="556" y="467" type="line"/>
      <point x="156" y="467" type="line"/>
    </contour>
    <contour>
      <point x="100" y="128" type="line"/>
      <point x="500" y="128" type="line"/>
      <point x="523" y="267" type="line"/>
      <point x="123" y="267" type="line"/>
    </contour>
  </outline>
</glyph>
<glyph name="greater" format="2">
  <advance width="640"/>
  <unicode hex="003E"/>
  <outline>
    <contour>
      <point x="89" y="60" type="line"/>
      <point x="518" y="229" type="line"/>
      <point x="539" y="364" type="line"/>
      <point x="114" y="217" type="line"/>
    </contour>
    <contour>
      <point x="519" y="234" type="line"/>
      <point x="540" y="369" type="line"/>
      <point x="167" y="536" type="line"/>
      <point x="142" y="379" type="line"/>
    </contour>
  </outline>
</glyph>
<glyph name="question" format="2">
  <advance width="521"/>
  <unicode hex="003F"/>
  <outline>
    <contour>
      <point x="154" y="284" type="line"/>
      <point x="274" y="284" type="line" smooth="yes"/>
      <point x="412" y="284"/>
      <point x="513" y="354"/>
      <point x="532" y="467" type="curve" smooth="yes"/>
      <point x="556" y="610"/>
      <point x="462" y="712"/>
      <point x="308" y="712" type="curve" smooth="yes"/>
      <point x="195" y="712"/>
      <point x="106" y="654"/>
      <point x="63" y="553" type="curve"/>
      <point x="219" y="500" type="line"/>
      <point x="233" y="527"/>
      <point x="266" y="552"/>
      <point x="306" y="552" type="curve" smooth="yes"/>
      <point x="349" y="552"/>
      <point x="372" y="526"/>
      <point x="366" y="489" type="curve" smooth="yes"/>
      <point x="356" y="428"/>
      <point x="308" y="403"/>
      <point x="254" y="397" type="curve" smooth="yes"/>
      <point x="166" y="387" type="line"/>
    </contour>
    <contour>
      <point x="202" y="-15" type="curve" smooth="yes"/>
      <point x="252" y="-15"/>
      <point x="300" y="27"/>
      <point x="308" y="77" type="curve" smooth="yes"/>
      <point x="318" y="139"/>
      <point x="274" y="191"/>
      <point x="212" y="191" type="curve" smooth="yes"/>
      <point x="162" y="191"/>
      <point x="114" y="149"/>
      <point x="106" y="99" type="curve" smooth="yes"/>
      <point x="95" y="37"/>
      <point x="140" y="-15"/>
    </contour>
    <contour>
      <point x="144" y="213" type="line"/>
      <point x="312" y="213" type="line"/>
      <point x="339" y="342" type="line"/>
      <point x="161" y="342" type="line"/>
    </contour>
  </outline>
</glyph>
<glyph name="at" format="2">
  <advance width="994"/>
  <unicode hex="0040"/>
  <outline>
    <contour>
      <point x="453" y="-208" type="curve" smooth="yes"/>
      <point x="504" y="-208"/>
      <point x="587" y="-185"/>
      <point x="649" y="-149" type="curve"/>
      <point x="584" y="-45" type="line"/>
      <point x="553" y="-68"/>
      <point x="497" y="-88"/>
      <point x="448" y="-88" type="curve" smooth="yes"/>
      <point x="236" y="-88"/>
      <point x="111" y="48"/>
      <point x="144" y="241" type="curve" smooth="yes"/>
      <point x="178" y="448"/>
      <point x="363" y="595"/>
      <point x="587" y="595" type="curve" smooth="yes"/>
      <point x="775" y="595"/>
      <point x="884" y="458"/>
      <point x="850" y="257" type="curve"/>
      <point x="968" y="247" type="line"/>
      <point x="1014" y="518"/>
      <point x="854" y="715"/>
      <point x="583" y="715" type="curve" smooth="yes"/>
      <point x="301" y="715"/>
      <point x="72" y="528"/>
      <point x="27" y="263" type="curve" smooth="yes"/>
      <point x="-19" y="-12"/>
      <point x="158" y="-208"/>
    </contour>
    <contour>
      <point x="423" y="14" type="curve" smooth="yes"/>
      <point x="542" y="14"/>
      <point x="640" y="108"/>
      <point x="663" y="241" type="curve" smooth="yes"/>
      <point x="687" y="386"/>
      <point x="609" y="489"/>
      <point x="478" y="489" type="curve" smooth="yes"/>
      <point x="370" y="489"/>
      <point x="281" y="396"/>
      <point x="258" y="263" type="curve" smooth="yes"/>
      <point x="234" y="118"/>
      <point x="303" y="14"/>
    </contour>
    <contour>
      <point x="483" y="158" type="curve" smooth="yes"/>
      <point x="437" y="158"/>
      <point x="410" y="191"/>
      <point x="419" y="242" type="curve" smooth="yes"/>
      <point x="429" y="302"/>
      <point x="476" y="345"/>
      <point x="530" y="345" type="curve" smooth="yes"/>
      <point x="574" y="345"/>
      <point x="599" y="312"/>
      <point x="591" y="263" type="curve" smooth="yes"/>
      <point x="581" y="201"/>
      <point x="534" y="158"/>
    </contour>
    <contour>
      <point x="719" y="-15" type="curve" smooth="yes"/>
      <point x="841" y="-15"/>
      <point x="942" y="91"/>
      <point x="968" y="247" type="curve"/>
      <point x="850" y="257" type="line"/>
      <point x="835" y="163"/>
      <point x="781" y="91"/>
      <point x="726" y="91" type="curve" smooth="yes"/>
      <point x="707" y="91"/>
      <point x="695" y="91"/>
      <point x="701" y="125" type="curve"/>
      <point x="571" y="125" type="line"/>
      <point x="558" y="46"/>
      <point x="626" y="-15"/>
    </contour>
    <contour>
      <point x="570" y="120" type="line"/>
      <point x="701" y="125" type="line"/>
      <point x="760" y="479" type="line"/>
      <point x="620" y="479" type="line"/>
    </contour>
  </outline>
</glyph>
<glyph name="A" format="2">
  <advance width="749"/>
  <unicode hex="0041"/>
  <anchor x="352" y="0" name="bottom"/>
  <anchor x="700" y="0" name="ogonek"/>
  <anchor x="448" y="700" name="top"/>
  <outline>
    <contour>
      <point x="-35" y="0" type="line"/>
      <point x="174" y="0" type="line"/>
      <point x="545" y="700" type="line"/>
      <point x="350" y="700" type="line"/>
    </contour>
    <contour>
      <point x="513" y="0" type="line"/>
      <point x="700" y="0" type="line"/>
      <point x="549" y="700" type="line"/>
      <point x="373" y="700" type="line"/>
    </contour>
    <contour>
      <point x="112" y="112" type="line"/>
      <point x="596" y="112" type="line"/>
      <point x="623" y="275" type="line"/>
      <point x="139" y="275" type="line"/>
    </contour>
  </outline>
</glyph>
<glyph name="B" format="2">
  <advance width="614"/>
  <unicode hex="0042"/>
  <outline>
    <contour>
      <point x="67" y="0" type="line"/>
      <point x="311" y="0" type="line" smooth="yes"/>
      <point x="453" y="0"/>
      <point x="559" y="69"/>
      <point x="580" y="197" type="curve" smooth="yes"/>
      <point x="608" y="366"/>
      <point x="462" y="421"/>
      <point x="252" y="421" type="curve"/>
      <point x="138" y="426" type="line"/>
      <point x="115" y="288" type="line"/>
      <point x="337" y="288" type="line" smooth="yes"/>
      <point x="373" y="288"/>
      <point x="394" y="271"/>
      <point x="394" y="244" type="curve" smooth="yes"/>
      <point x="393" y="189"/>
      <point x="356" y="163"/>
      <point x="304" y="163" type="curve" smooth="yes"/>
      <point x="94" y="163" type="line"/>
    </contour>
    <contour>
      <point x="18" y="0" type="line"/>
      <point x="198" y="0" type="line"/>
      <point x="315" y="700" type="line"/>
      <point x="135" y="700" type="line"/>
    </contour>
    <contour>
      <point x="105" y="276" type="line"/>
      <point x="243" y="294" type="line"/>
      <point x="436" y="294"/>
      <point x="584" y="386"/>
      <point x="600" y="482" type="curve" smooth="yes"/>
      <point x="625" y="630"/>
      <point x="527" y="703"/>
      <point x="381" y="701" type="curve" smooth="yes"/>
      <point x="176" y="698" type="line"/>
      <point x="152" y="557" type="line"/>
      <point x="356" y="557" type="line" smooth="yes"/>
      <point x="396" y="557"/>
      <point x="417" y="542"/>
      <point x="417" y="510" type="curve" smooth="yes"/>
      <point x="417" y="462"/>
      <point x="387" y="435"/>
      <point x="324" y="435" type="curve" smooth="yes"/>
      <point x="132" y="435" type="line"/>
    </contour>
  </outline>
</glyph>
<glyph name="C" format="2">
  <advance width="731"/>
  <unicode hex="0043"/>
  <anchor x="339" y="-12" name="bottom"/>
  <anchor x="458" y="700" name="top"/>
  <outline>
    <contour>
      <point x="351" y="-12" type="curve" smooth="yes"/>
      <point x="507" y="-12"/>
      <point x="637" y="73"/>
      <point x="709" y="206" type="curve"/>
      <point x="539" y="272" type="line"/>
      <point x="497" y="206"/>
      <point x="442" y="158"/>
      <point x="358" y="158" type="curve" smooth="yes"/>
      <point x="264" y="158"/>
      <point x="212" y="232"/>
      <point x="230" y="339" type="curve" smooth="yes"/>
      <point x="250" y="458"/>
      <point x="340" y="542"/>
      <point x="444" y="542" type="curve" smooth="yes"/>
      <point x="512" y="542"/>
      <point x="553" y="505"/>
      <point x="571" y="439" type="curve"/>
      <point x="751" y="485" type="line"/>
      <point x="722" y="617"/>
      <point x="615" y="712"/>
      <point x="448" y="712" type="curve" smooth="yes"/>
      <point x="244" y="712"/>
      <point x="78" y="567"/>
      <point x="44" y="361" type="curve" smooth="yes"/>
      <point x="7" y="143"/>
      <point x="135" y="-12"/>
    </contour>
  </outline>
</glyph>
<glyph name="D" format="2">
  <advance width="711"/>
  <unicode hex="0044"/>
  <anchor x="378" y="700" name="top"/>
  <outline>
    <contour>
      <point x="252" y="0" type="line"/>
      <point x="485" y="0"/>
      <point x="668" y="140"/>
      <point x="701" y="339" type="curve" smooth="yes"/>
      <point x="736" y="550"/>
      <point x="593" y="700"/>
      <point x="363" y="700" type="curve"/>
      <point x="340" y="525" type="line"/>
      <point x="462" y="525"/>
      <point x="531" y="458"/>
      <point x="515" y="361" type="curve" smooth="yes"/>
      <point x="496" y="252"/>
      <point x="393" y="175"/>
      <point x="275" y="175" type="curve"/>
    </contour>
    <contour>
      <point x="107" y="0" type="line"/>
      <point x="252" y="0" type="line"/>
      <point x="281" y="175" type="line"/>
      <point x="136" y="175" type="line"/>
    </contour>
    <contour>
      <point x="18" y="0" type="line"/>
      <point x="203" y="0" type="line"/>
      <point x="320" y="700" type="line"/>
      <point x="135" y="700" type="line"/>
    </contour>
    <contour>
      <point x="195" y="525" type="line"/>
      <point x="340" y="525" type="line"/>
      <point x="369" y="700" type="line"/>
      <point x="224" y="700" type="line"/>
    </contour>
  </outline>
</glyph>
<glyph name="E" format="2">
  <advance width="586"/>
  <unicode hex="0045"/>
  <anchor x="246" y="0" name="bottom"/>
  <anchor x="494" y="0" name="ogonek"/>
  <anchor x="363" y="700" name="top"/>
  <anchor x="85" y="700" name="topleft"/>
  <outline>
    <contour>
      <point x="18" y="0" type="line"/>
      <point x="494" y="0" type="line"/>
      <point x="523" y="170" type="line"/>
      <point x="231" y="170" type="line"/>
      <point x="248" y="268" type="line"/>
      <point x="478" y="268" type="line"/>
      <point x="506" y="433" type="line"/>
      <point x="275" y="433" type="line"/>
      <point x="292" y="530" type="line"/>
      <point x="576" y="530" type="line"/>
      <point x="604" y="700" type="line"/>
      <point x="135" y="700" type="line"/>
    </contour>
  </outline>
</glyph>
<glyph name="F" format="2">
  <advance width="564"/>
  <unicode hex="0046"/>
  <outline>
    <contour>
      <point x="18" y="0" type="line"/>
      <point x="203" y="0" type="line"/>
      <point x="246" y="258" type="line"/>
      <point x="476" y="258" type="line"/>
      <point x="505" y="428" type="line"/>
      <point x="275" y="428" type="line"/>
      <point x="292" y="530" type="line"/>
      <point x="586" y="530" type="line"/>
      <point x="614" y="700" type="line"/>
      <point x="135" y="700" type="line"/>
    </contour>
  </outline>
</glyph>
<glyph name="G" format="2">
  <advance width="727"/>
  <unicode hex="0047"/>
  <anchor x="351" y="0" name="bottom"/>
  <anchor x="468" y="700" name="top"/>
  <outline>
    <contour>
      <point x="377" y="-12" type="curve" smooth="yes"/>
      <point x="594" y="-12"/>
      <point x="685" y="82"/>
      <point x="720" y="295" type="curve"/>
      <point x="538" y="278" type="line"/>
      <point x="524" y="198"/>
      <point x="481" y="158"/>
      <point x="395" y="158" type="curve" smooth="yes"/>
      <point x="279" y="158"/>
      <point x="219" y="265"/>
      <point x="233" y="350" type="curve" smooth="yes"/>
      <point x="255" y="485"/>
      <point x="340" y="542"/>
      <point x="429" y="542" type="curve" smooth="yes"/>
      <point x="475" y="542"/>
      <point x="536" y="516"/>
      <point x="559" y="472" type="curve"/>
      <point x="730" y="553" type="line"/>
      <point x="687" y="642"/>
      <point x="606" y="712"/>
      <point x="458" y="712" type="curve" smooth="yes"/>
      <point x="214" y="712"/>
      <point x="80" y="573"/>
      <point x="44" y="361" type="curve" smooth="yes"/>
      <point x="13" y="179"/>
      <point x="156" y="-12"/>
    </contour>
    <contour>
      <point x="380" y="252" type="line"/>
      <point x="608" y="252" type="line"/>
      <point x="720" y="295" type="line"/>
      <point x="736" y="392" type="line"/>
      <point x="404" y="392" type="line"/>
    </contour>
  </outline>
</glyph>
<glyph name="H" format="2">
  <advance width="748"/>
  <unicode hex="0048"/>
  <anchor x="332" y="0" name="bottom"/>
  <anchor x="391" y="350" name="center"/>
  <anchor x="449" y="700" name="top"/>
  <anchor x="95" y="700" name="topleft"/>
  <outline>
    <contour>
      <point x="18" y="0" type="line"/>
      <point x="203" y="0" type="line"/>
      <point x="320" y="700" type="line"/>
      <point x="135" y="700" type="line"/>
    </contour>
    <contour>
      <point x="461" y="0" type="line"/>
      <point x="646" y="0" type="line"/>
      <point x="763" y="700" type="line"/>
      <point x="578" y="700" type="line"/>
    </contour>
    <contour>
      <point x="191" y="271" type="line"/>
      <point x="615" y="271" type="line"/>
      <point x="643" y="441" type="line"/>
      <point x="219" y="441" type="line"/>
    </contour>
  </outline>
</glyph>
<glyph name="I" format="2">
  <advance width="305"/>
  <unicode hex="0049"/>
  <anchor x="113" y="0" name="bottom"/>
  <anchor x="207" y="0" name="ogonek"/>
  <anchor x="230" y="700" name="top"/>
  <anchor x="85" y="700" name="topleft"/>
  <outline>
    <contour>
      <point x="18" y="0" type="line"/>
      <point x="203" y="0" type="line"/>
      <point x="320" y="700" type="line"/>
      <point x="135" y="700" type="line"/>
    </contour>
  </outline>
</glyph>
<glyph name="J" format="2">
  <advance width="587"/>
  <unicode hex="004A"/>
  <anchor x="510" y="670" name="top"/>
  <outline>
    <contour>
      <point x="231" y="-16" type="curve" smooth="yes"/>
      <point x="396" y="-16"/>
      <point x="507" y="72"/>
      <point x="529" y="204" type="curve" smooth="yes"/>
      <point x="612" y="700" type="line"/>
      <point x="427" y="700" type="line"/>
      <point x="354" y="260" type="line" smooth="yes"/>
      <point x="342" y="191"/>
      <point x="294" y="154"/>
      <point x="237" y="154" type="curve" smooth="yes"/>
      <point x="193" y="154"/>
      <point x="172" y="183"/>
      <point x="178" y="248" type="curve"/>
      <point x="2" y="206" type="line"/>
      <point x="-11" y="126"/>
      <point x="51" y="-16"/>
    </contour>
  </outline>
</glyph>
<glyph name="K" format="2">
  <advance width="718"/>
  <unicode hex="004B"/>
  <anchor x="317" y="0" name="bottom"/>
  <anchor x="434" y="700" name="top"/>
  <outline>
    <contour>
      <point x="144" y="119" type="line"/>
      <point x="777" y="700" type="line"/>
      <point x="529" y="700" type="line"/>
      <point x="183" y="378" type="line"/>
    </contour>
    <contour>
      <point x="18" y="0" type="line"/>
      <point x="203" y="0" type="line"/>
      <point x="320" y="700" type="line"/>
      <point x="135" y="700" type="line"/>
    </contour>
    <contour>
      <point x="439" y="0" type="line"/>
      <point x="664" y="0" type="line"/>
      <point x="378" y="464" type="line"/>
      <point x="225" y="356" type="line"/>
    </contour>
  </outline>
</glyph>
<glyph name="L" format="2">
  <advance width="553"/>
  <unicode hex="004C"/>
  <anchor x="245" y="0" name="bottom"/>
  <anchor x="294" y="350" name="center"/>
  <anchor x="228" y="700" name="top"/>
  <anchor x="342" y="759" name="top_caron"/>
  <anchor x="608" y="700" name="topright"/>
  <outline>
    <contour>
      <point x="18" y="0" type="line"/>
      <point x="491" y="0" type="line"/>
      <point x="520" y="170" type="line"/>
      <point x="231" y="170" type="line"/>
      <point x="320" y="700" type="line"/>
      <point x="135" y="700" type="line"/>
    </contour>
  </outline>
</glyph>
<glyph name="M" format="2">
  <advance width="871"/>
  <unicode hex="004D"/>
  <outline>
    <contour>
      <point x="18" y="0" type="line"/>
      <point x="203" y="0" type="line"/>
      <point x="320" y="700" type="line"/>
      <point x="135" y="700" type="line"/>
    </contour>
    <contour>
      <point x="421" y="140" type="line"/>
      <point x="539" y="309" type="line"/>
      <point x="338" y="700" type="line"/>
      <point x="226" y="700" type="line"/>
      <point x="134" y="680" type="line"/>
    </contour>
    <contour>
      <point x="421" y="140" type="line"/>
      <point x="883" y="683" type="line"/>
      <point x="794" y="700" type="line"/>
      <point x="676" y="700" type="line"/>
      <point x="349" y="309" type="line"/>
    </contour>
    <contour>
      <point x="581" y="0" type="line"/>
      <point x="766" y="0" type="line"/>
      <point x="883" y="700" type="line"/>
      <point x="698" y="700" type="line"/>
    </contour>
  </outline>
</glyph>
<glyph name="N" format="2">
  <advance width="773"/>
  <unicode hex="004E"/>
  <anchor x="347" y="0" name="bottom"/>
  <anchor x="459" y="680" name="top"/>
  <outline>
    <contour>
      <point x="486" y="0" type="line"/>
      <point x="648" y="105" type="line"/>
      <point x="331" y="700" type="line"/>
      <point x="167" y="599" type="line"/>
    </contour>
    <contour>
      <point x="18" y="0" type="line"/>
      <point x="203" y="-1" type="line"/>
      <point x="292" y="529" type="line"/>
      <point x="331" y="700" type="line"/>
      <point x="135" y="700" type="line"/>
    </contour>
    <contour>
      <point x="486" y="0" type="line"/>
      <point x="671" y="0" type="line"/>
      <point x="788" y="700" type="line"/>
      <point x="603" y="700" type="line"/>
    </contour>
  </outline>
</glyph>
<glyph name="O" format="2">
  <advance width="797"/>
  <unicode hex="004F"/>
  <anchor x="357" y="0" name="bottom"/>
  <anchor x="416" y="350" name="center"/>
  <anchor x="681" y="10" name="ogonek"/>
  <anchor x="474" y="700" name="top"/>
  <anchor x="90" y="700" name="topleft"/>
  <anchor x="857" y="700" name="topright"/>
  <outline>
    <contour>
      <point x="368" y="-12" type="curve" smooth="yes"/>
      <point x="580" y="-12"/>
      <point x="752" y="133"/>
      <point x="787" y="338" type="curve" smooth="yes"/>
      <point x="823" y="556"/>
      <point x="688" y="711"/>
      <point x="463" y="711" type="curve" smooth="yes"/>
      <point x="251" y="711"/>
      <point x="78" y="566"/>
      <point x="43" y="360" type="curve" smooth="yes"/>
      <point x="7" y="143"/>
      <point x="142" y="-12"/>
    </contour>
    <contour>
      <point x="372" y="158" type="curve" smooth="yes"/>
      <point x="270" y="158"/>
      <point x="212" y="232"/>
      <point x="230" y="338" type="curve" smooth="yes"/>
      <point x="249" y="456"/>
      <point x="346" y="541"/>
      <point x="459" y="541" type="curve" smooth="yes"/>
      <point x="561" y="541"/>
      <point x="618" y="466"/>
      <point x="600" y="360" type="curve" smooth="yes"/>
      <point x="581" y="242"/>
      <point x="485" y="158"/>
    </contour>
  </outline>
</glyph>
<glyph name="P" format="2">
  <advance width="625"/>
  <unicode hex="0050"/>
  <outline>
    <contour>
      <point x="212" y="210" type="line"/>
      <point x="349" y="210" type="line" smooth="yes"/>
      <point x="507" y="210"/>
      <point x="629" y="307"/>
      <point x="653" y="445" type="curve" smooth="yes"/>
      <point x="678" y="595"/>
      <point x="578" y="702"/>
      <point x="419" y="701" type="curve" smooth="yes"/>
      <point x="294" y="700" type="line"/>
      <point x="266" y="531" type="line"/>
      <point x="398" y="531" type="line" smooth="yes"/>
      <point x="442" y="531"/>
      <point x="467" y="504"/>
      <point x="467" y="463" type="curve" smooth="yes"/>
      <point x="467" y="431"/>
      <point x="429" y="380"/>
      <point x="361" y="380" type="curve" smooth="yes"/>
      <point x="241" y="380" type="line"/>
    </contour>
    <contour>
      <point x="18" y="0" type="line"/>
      <point x="203" y="0" type="line"/>
      <point x="320" y="700" type="line"/>
      <point x="135" y="700" type="line"/>
    </contour>
  </outline>
</glyph>
<glyph name="Q" format="2">
  <advance width="797"/>
  <unicode hex="0051"/>
  <outline>
    <contour>
      <point x="368" y="-12" type="curve" smooth="yes"/>
      <point x="580" y="-12"/>
      <point x="752" y="133"/>
      <point x="787" y="338" type="curve" smooth="yes"/>
      <point x="823" y="556"/>
      <point x="688" y="712"/>
      <point x="463" y="712" type="curve" smooth="yes"/>
      <point x="251" y="712"/>
      <point x="78" y="566"/>
      <point x="43" y="360" type="curve" smooth="yes"/>
      <point x="7" y="143"/>
      <point x="142" y="-12"/>
    </contour>
    <contour>
      <point x="596" y="-44" type="line"/>
      <point x="725" y="68" type="line"/>
      <point x="503" y="337" type="line"/>
      <point x="372" y="226" type="line"/>
    </contour>
    <contour>
      <point x="372" y="158" type="curve" smooth="yes"/>
      <point x="270" y="158"/>
      <point x="212" y="232"/>
      <point x="230" y="338" type="curve" smooth="yes"/>
      <point x="250" y="457"/>
      <point x="346" y="542"/>
      <point x="459" y="542" type="curve" smooth="yes"/>
      <point x="561" y="542"/>
      <point x="618" y="467"/>
      <point x="600" y="360" type="curve" smooth="yes"/>
      <point x="581" y="242"/>
      <point x="485" y="158"/>
    </contour>
  </outline>
</glyph>
<glyph name="R" format="2">
  <advance width="663"/>
  <unicode hex="0052"/>
  <anchor x="290" y="0" name="bottom"/>
  <anchor x="376" y="700" name="top"/>
  <outline>
    <contour>
      <point x="214" y="222" type="line"/>
      <point x="351" y="222" type="line" smooth="yes"/>
      <point x="509" y="222"/>
      <point x="631" y="316"/>
      <point x="654" y="451" type="curve" smooth="yes"/>
      <point x="678" y="597"/>
      <point x="578" y="702"/>
      <point x="419" y="701" type="curve" smooth="yes"/>
      <point x="294" y="700" type="line"/>
      <point x="266" y="531" type="line"/>
      <point x="393" y="531" type="line" smooth="yes"/>
      <point x="443" y="531"/>
      <point x="468" y="507"/>
      <point x="462" y="473" type="curve" smooth="yes"/>
      <point x="455" y="426"/>
      <point x="408" y="392"/>
      <point x="358" y="392" type="curve" smooth="yes"/>
      <point x="243" y="392" type="line"/>
    </contour>
    <contour>
      <point x="18" y="0" type="line"/>
      <point x="203" y="0" type="line"/>
      <point x="320" y="700" type="line"/>
      <point x="135" y="700" type="line"/>
    </contour>
    <contour>
      <point x="396" y="0" type="line"/>
      <point x="604" y="0" type="line"/>
      <point x="436" y="379" type="line"/>
      <point x="285" y="275" type="line"/>
    </contour>
  </outline>
</glyph>
<glyph name="S" format="2">
  <advance width="600"/>
  <unicode hex="0053"/>
  <anchor x="263" y="0" name="bottom"/>
  <anchor x="372" y="700" name="top"/>
  <outline>
    <contour>
      <point x="273" y="-16" type="curve" smooth="yes"/>
      <point x="428" y="-16"/>
      <point x="531" y="56"/>
      <point x="553" y="188" type="curve" smooth="yes"/>
      <point x="571" y="294"/>
      <point x="518" y="384"/>
      <point x="419" y="410" type="curve" smooth="yes"/>
      <point x="325" y="435" type="line" smooth="yes"/>
      <point x="292" y="444"/>
      <point x="273" y="465"/>
      <point x="273" y="482" type="curve" smooth="yes"/>
      <point x="273" y="530"/>
      <point x="307" y="549"/>
      <point x="361" y="549" type="curve" smooth="yes"/>
      <point x="404" y="549"/>
      <point x="426" y="520"/>
      <point x="429" y="494" type="curve"/>
      <point x="616" y="537" type="line"/>
      <point x="587" y="655"/>
      <point x="507" y="708"/>
      <point x="370" y="708" type="curve" smooth="yes"/>
      <point x="211" y="708"/>
      <point x="109" y="632"/>
      <point x="87" y="501" type="curve" smooth="yes"/>
      <point x="68" y="390"/>
      <point x="124" y="310"/>
      <point x="228" y="283" type="curve" smooth="yes"/>
      <point x="319" y="259" type="line" smooth="yes"/>
      <point x="344" y="252"/>
      <point x="360" y="236"/>
      <point x="360" y="212" type="curve" smooth="yes"/>
      <point x="360" y="175"/>
      <point x="316" y="144"/>
      <point x="272" y="145" type="curve" smooth="yes"/>
      <point x="232" y="147"/>
      <point x="211" y="167"/>
      <point x="204" y="200" type="curve"/>
      <point x="16" y="159" type="line"/>
      <point x="15" y="68"/>
      <point x="135" y="-16"/>
    </contour>
  </outline>
</glyph>
<glyph name="T" format="2">
  <advance width="614"/>
  <unicode hex="0054"/>
  <anchor x="265" y="0" name="bottom"/>
  <anchor x="324" y="350" name="center"/>
  <anchor x="381" y="700" name="top"/>
  <outline>
    <contour>
      <point x="173" y="0" type="line"/>
      <point x="358" y="0" type="line"/>
      <point x="447" y="530" type="line"/>
      <point x="644" y="530" type="line"/>
      <point x="672" y="700" type="line"/>
      <point x="92" y="700" type="line"/>
      <point x="64" y="530" type="line"/>
      <point x="262" y="530" type="line"/>
    </contour>
  </outline>
</glyph>
<glyph name="U" format="2">
  <advance width="700"/>
  <unicode hex="0055"/>
  <anchor x="306" y="0" name="bottom"/>
  <anchor x="522" y="50" name="ogonek"/>
  <anchor x="425" y="700" name="top"/>
  <anchor x="745" y="700" name="topright"/>
  <outline>
    <contour>
      <point x="316" y="-12" type="curve" smooth="yes"/>
      <point x="501" y="-12"/>
      <point x="624" y="91"/>
      <point x="654" y="271" type="curve" smooth="yes"/>
      <point x="725" y="700" type="line"/>
      <point x="540" y="700" type="line"/>
      <point x="469" y="271" type="line" smooth="yes"/>
      <point x="458" y="204"/>
      <point x="401" y="160"/>
      <point x="323" y="160" type="curve" smooth="yes"/>
      <point x="258" y="160"/>
      <point x="227" y="198"/>
      <point x="239" y="271" type="curve" smooth="yes"/>
      <point x="310" y="700" type="line"/>
      <point x="125" y="700" type="line"/>
      <point x="54" y="271" type="line" smooth="yes"/>
      <point x="25" y="97"/>
      <point x="123" y="-12"/>
    </contour>
  </outline>
</glyph>
<glyph name="V" format="2">
  <advance width="750"/>
  <unicode hex="0056"/>
  <outline>
    <contour>
      <point x="251" y="0" type="line"/>
      <point x="434" y="0" type="line"/>
      <point x="818" y="700" type="line"/>
      <point x="614" y="700" type="line"/>
    </contour>
    <contour>
      <point x="234" y="0" type="line"/>
      <point x="409" y="0" type="line"/>
      <point x="278" y="700" type="line"/>
      <point x="82" y="700" type="line"/>
    </contour>
  </outline>
</glyph>
<glyph name="W" format="2">
  <advance width="1008"/>
  <unicode hex="0057"/>
  <anchor x="581" y="670" name="top"/>
  <outline>
    <contour>
      <point x="580" y="0" type="line"/>
      <point x="758" y="0" type="line"/>
      <point x="1076" y="700" type="line"/>
      <point x="884" y="700" type="line"/>
    </contour>
    <contour>
      <point x="166" y="0" type="line"/>
      <point x="338" y="0" type="line"/>
      <point x="268" y="700" type="line"/>
      <point x="82" y="700" type="line"/>
    </contour>
    <contour>
      <point x="190" y="0" type="line"/>
      <point x="358" y="0" type="line"/>
      <point x="651" y="700" type="line"/>
      <point x="484" y="700" type="line"/>
    </contour>
    <contour>
      <point x="566" y="0" type="line"/>
      <point x="738" y="0" type="line"/>
      <point x="668" y="700" type="line"/>
      <point x="507" y="700" type="line"/>
    </contour>
  </outline>
</glyph>
<glyph name="X" format="2">
  <advance width="739"/>
  <unicode hex="0058"/>
  <outline>
    <contour>
      <point x="-34" y="0" type="line"/>
      <point x="194" y="0" type="line"/>
      <point x="477" y="340" type="line"/>
      <point x="799" y="700" type="line"/>
      <point x="573" y="700" type="line"/>
      <point x="299" y="382" type="line"/>
    </contour>
    <contour>
      <point x="467" y="0" type="line"/>
      <point x="685" y="0" type="line"/>
      <point x="476" y="383" type="line"/>
      <point x="312" y="700" type="line"/>
      <point x="96" y="700" type="line"/>
      <point x="303" y="340" type="line"/>
    </contour>
  </outline>
</glyph>
<glyph name="Y" format="2">
  <advance width="686"/>
  <unicode hex="0059"/>
  <anchor x="413" y="670" name="top"/>
  <outline>
    <contour>
      <point x="438" y="287" type="line"/>
      <point x="759" y="700" type="line"/>
      <point x="544" y="700" type="line"/>
      <point x="257" y="318" type="line"/>
    </contour>
    <contour>
      <point x="209" y="0" type="line"/>
      <point x="394" y="0" type="line"/>
      <point x="450" y="336" type="line"/>
      <point x="265" y="336" type="line"/>
    </contour>
    <contour>
      <point x="266" y="287" type="line"/>
      <point x="447" y="318" type="line"/>
      <point x="288" y="700" type="line"/>
      <point x="83" y="700" type="line"/>
    </contour>
  </outline>
</glyph>
<glyph name="Z" format="2">
  <advance width="628"/>
  <unicode hex="005A"/>
  <anchor x="390" y="700" name="top"/>
  <outline>
    <contour>
      <point x="264" y="175" type="line"/>
      <point x="644" y="525" type="line"/>
      <point x="398" y="525" type="line"/>
      <point x="17" y="175" type="line"/>
    </contour>
    <contour>
      <point x="-10" y="0" type="line"/>
      <point x="551" y="0" type="line"/>
      <point x="580" y="175" type="line"/>
      <point x="19" y="175" type="line"/>
    </contour>
    <contour>
      <point x="81" y="525" type="line"/>
      <point x="642" y="525" type="line"/>
      <point x="671" y="700" type="line"/>
      <point x="110" y="700" type="line"/>
    </contour>
  </outline>
</glyph>
<glyph name="bracketleft" format="2">
  <advance width="362"/>
  <unicode hex="005B"/>
  <outline>
    <contour>
      <point x="1" y="-100" type="line"/>
      <point x="263" y="-100" type="line"/>
      <point x="290" y="60" type="line"/>
      <point x="178" y="60" type="line"/>
      <point x="275" y="640" type="line"/>
      <point x="387" y="640" type="line"/>
      <point x="414" y="800" type="line"/>
      <point x="152" y="800" type="line"/>
    </contour>
  </outline>
</glyph>
<glyph name="asciicircum" format="2">
  <advance width="609"/>
  <unicode hex="005E"/>
  <outline>
    <contour>
      <point x="91" y="373" type="line"/>
      <point x="249" y="373" type="line"/>
      <point x="461" y="700" type="line"/>
      <point x="301" y="700" type="line"/>
    </contour>
    <contour>
      <point x="413" y="373" type="line"/>
      <point x="560" y="373" type="line"/>
      <point x="458" y="700" type="line"/>
      <point x="305" y="700" type="line"/>
    </contour>
  </outline>
</glyph>
<glyph name="a" format="2">
  <advance width="613"/>
  <unicode hex="0061"/>
  <anchor x="526" y="0" name="ogonek"/>
  <anchor x="324" y="500" name="top"/>
  <outline>
    <contour>
      <point x="355" y="0" type="line"/>
      <point x="526" y="0" type="line"/>
      <point x="610" y="500" type="line"/>
      <point x="430" y="500" type="line"/>
      <point x="362" y="93" type="line"/>
    </contour>
    <component base="Bowl" xOffset="25"/>
  </outline>
</glyph>
<glyph name="b" format="2">
  <advance width="606"/>
  <unicode hex="0062"/>
  <outline>
    <contour>
      <point x="3" y="0" type="line"/>
      <point x="174" y="0" type="line"/>
      <point x="199" y="93" type="line"/>
      <point x="300" y="700" type="line"/>
      <point x="120" y="700" type="line"/>
    </contour>
    <component base="Bowl" xScale="-1.0" yScale="-1.0" xOffset="595" yOffset="500"/>
  </outline>
</glyph>
<glyph name="c" format="2">
  <advance width="560"/>
  <unicode hex="0063"/>
  <outline>
    <contour>
      <point x="263" y="-12" type="curve" smooth="yes"/>
      <point x="368" y="-12"/>
      <point x="473" y="45"/>
      <point x="528" y="149" type="curve"/>
      <point x="365" y="204" type="line"/>
      <point x="349" y="177"/>
      <point x="315" y="158"/>
      <point x="282" y="158" type="curve" smooth="yes"/>
      <point x="231" y="158"/>
      <point x="201" y="196"/>
      <point x="210" y="250" type="curve" smooth="yes"/>
      <point x="219" y="304"/>
      <point x="260" y="342"/>
      <point x="310" y="342" type="curve" smooth="yes"/>
      <point x="344" y="342"/>
      <point x="373" y="323"/>
      <point x="380" y="296" type="curve"/>
      <point x="561" y="352" type="line"/>
      <point x="540" y="456"/>
      <point x="454" y="512"/>
      <point x="349" y="512" type="curve" smooth="yes"/>
      <point x="185" y="512"/>
      <point x="51" y="403"/>
      <point x="25" y="250" type="curve" smooth="yes"/>
      <point x="-1" y="97"/>
      <point x="98" y="-12"/>
    </contour>
  </outline>
</glyph>
<glyph name="d" format="2">
  <advance width="620"/>
  <unicode hex="0064"/>
  <anchor x="560" y="700" name="top"/>
  <anchor x="650" y="700" name="top_caron"/>
  <outline>
    <contour>
      <point x="362" y="0" type="line"/>
      <point x="533" y="0" type="line"/>
      <point x="650" y="700" type="line"/>
      <point x="470" y="700" type="line"/>
      <point x="369" y="93" type="line"/>
    </contour>
    <component base="Bowl" xOffset="25"/>
  </outline>
</glyph>
<glyph name="e" format="2">
  <advance width="568"/>
  <unicode hex="0065"/>
  <anchor x="260" y="0" name="bottom"/>
  <anchor x="471" y="50" name="ogonek"/>
  <anchor x="338" y="500" name="top"/>
  <outline>
    <contour>
      <point x="256" y="-12" type="curve" smooth="yes"/>
      <point x="348" y="-20"/>
      <point x="465" y="8"/>
      <point x="518" y="110" type="curve"/>
      <point x="369" y="172" type="line"/>
      <point x="356" y="141"/>
      <point x="317" y="121"/>
      <point x="273" y="125" type="curve" smooth="yes"/>
      <point x="225" y="129"/>
      <point x="189" y="159"/>
      <point x="203" y="248" type="curve" smooth="yes"/>
      <point x="219" y="340"/>
      <point x="249" y="392"/>
      <point x="312" y="387" type="curve" smooth="yes"/>
      <point x="388" y="380"/>
      <point x="391" y="310"/>
      <point x="374" y="205" type="curve"/>
      <point x="550" y="205" type="line"/>
      <point x="585" y="397"/>
      <point x="493" y="498"/>
      <point x="339" y="511" type="curve" smooth="yes"/>
      <point x="178" y="524"/>
      <point x="50" y="428"/>
      <point x="24" y="272" type="curve" smooth="yes"/>
      <point x="-2" y="117"/>
      <point x="94" y="2"/>
    </contour>
    <contour>
      <point x="135" y="205" type="line"/>
      <point x="474" y="205" type="line"/>
      <point x="474" y="315" type="line"/>
      <point x="136" y="315" type="line"/>
    </contour>
  </outline>
</glyph>
<glyph name="f" format="2">
  <advance width="415"/>
  <unicode hex="0066"/>
  <outline>
    <contour>
      <point x="53" y="0" type="line"/>
      <point x="233" y="0" type="line"/>
      <point x="318" y="507" type="line" smooth="yes"/>
      <point x="326" y="555"/>
      <point x="340" y="572"/>
      <point x="367" y="572" type="curve" smooth="yes"/>
      <point x="380" y="572"/>
      <point x="394" y="568"/>
      <point x="405" y="558" type="curve"/>
      <point x="492" y="683" type="line"/>
      <point x="463" y="704"/>
      <point x="408" y="724"/>
      <point x="357" y="724" type="curve" smooth="yes"/>
      <point x="233" y="724"/>
      <point x="163" y="654"/>
      <point x="144" y="543" type="curve" smooth="yes"/>
    </contour>
    <contour>
      <point x="38" y="360" type="line"/>
      <point x="396" y="360" type="line"/>
      <point x="420" y="500" type="line"/>
      <point x="62" y="500" type="line"/>
    </contour>
  </outline>
</glyph>
<glyph name="g" format="2">
  <advance width="619"/>
  <unicode hex="0067"/>
  <anchor x="354" y="500" name="top"/>
  <outline>
    <contour>
      <point x="219" y="-214" type="curve" smooth="yes"/>
      <point x="401" y="-214"/>
      <point x="514" y="-107"/>
      <point x="542" y="60" type="curve" smooth="yes"/>
      <point x="616" y="500" type="line"/>
      <point x="436" y="500" type="line"/>
      <point x="361" y="52" type="line" smooth="yes"/>
      <point x="349" y="-21"/>
      <point x="299" y="-56"/>
      <point x="237" y="-56" type="curve" smooth="yes"/>
      <point x="143" y="-56"/>
      <point x="104" y="-27"/>
      <point x="74" y="-11" type="curve"/>
      <point x="-21" y="-154" type="line"/>
      <point x="21" y="-192"/>
      <point x="88" y="-214"/>
    </contour>
    <contour>
      <point x="213" y="24" type="curve" smooth="yes"/>
      <point x="327" y="24"/>
      <point x="409" y="108"/>
      <point x="433" y="250" type="curve" smooth="yes"/>
      <point x="461" y="415"/>
      <point x="409" y="512"/>
      <point x="295" y="512" type="curve" smooth="yes"/>
      <point x="153" y="512"/>
      <point x="53" y="416"/>
      <point x="26" y="254" type="curve" smooth="yes"/>
      <point x="2" y="110"/>
      <point x="71" y="24"/>
    </contour>
    <contour>
      <point x="293" y="173" type="curve" smooth="yes"/>
      <point x="245" y="173"/>
      <point x="218" y="210"/>
      <point x="226" y="261" type="curve" smooth="yes"/>
      <point x="236" y="314"/>
      <point x="274" y="350"/>
      <point x="322" y="350" type="curve" smooth="yes"/>
      <point x="371" y="350"/>
      <point x="396" y="314"/>
      <point x="387" y="261" type="curve" smooth="yes"/>
      <point x="378" y="210"/>
      <point x="342" y="173"/>
    </contour>
  </outline>
</glyph>
<glyph name="h" format="2">
  <advance width="579"/>
  <unicode hex="0068"/>
  <anchor x="248" y="0" name="bottom"/>
  <anchor x="315" y="400" name="center"/>
  <anchor x="210" y="700" name="top"/>
  <outline>
    <contour>
      <point x="5" y="0" type="line"/>
      <point x="185" y="0" type="line"/>
      <point x="300" y="700" type="line"/>
      <point x="120" y="700" type="line"/>
    </contour>
    <contour>
      <point x="316" y="0" type="line"/>
      <point x="496" y="0" type="line"/>
      <point x="539" y="256" type="line"/>
      <point x="359" y="256" type="line"/>
    </contour>
    <component base="arch" xOffset="176"/>
  </outline>
</glyph>
<glyph name="i" format="2">
  <advance width="268"/>
  <unicode hex="0069"/>
  <outline>
    <contour>
      <point x="179" y="0" type="line"/>
      <point x="263" y="500" type="line"/>
      <point x="83" y="500" type="line"/>
      <point x="-1" y="0" type="line"/>
    </contour>
    <contour>
      <point x="185" y="548" type="curve" smooth="yes"/>
      <point x="239" y="548"/>
      <point x="292" y="594"/>
      <point x="301" y="648" type="curve" smooth="yes"/>
      <point x="310" y="702"/>
      <point x="272" y="748"/>
      <point x="218" y="748" type="curve" smooth="yes"/>
      <point x="164" y="748"/>
      <point x="110" y="702"/>
      <point x="101" y="648" type="curve" smooth="yes"/>
      <point x="92" y="594"/>
      <point x="131" y="548"/>
    </contour>
  </outline>
</glyph>
<glyph name="j" format="2">
  <advance width="300"/>
  <unicode hex="006A"/>
  <outline>
    <contour>
      <point x="212" y="542" type="curve" smooth="yes"/>
      <point x="268" y="542"/>
      <point x="323" y="589"/>
      <point x="332" y="645" type="curve" smooth="yes"/>
      <point x="341" y="701"/>
      <point x="302" y="748"/>
      <point x="246" y="748" type="curve" smooth="yes"/>
      <point x="190" y="748"/>
      <point x="135" y="701"/>
      <point x="126" y="645" type="curve" smooth="yes"/>
      <point x="117" y="589"/>
      <point x="156" y="542"/>
    </contour>
    <contour>
      <point x="-26" y="-215" type="curve" smooth="yes"/>
      <point x="100" y="-215"/>
      <point x="187" y="-143"/>
      <point x="208" y="-21" type="curve" smooth="yes"/>
      <point x="295" y="500" type="line"/>
      <point x="115" y="500" type="line"/>
      <point x="30" y="-7" type="line" smooth="yes"/>
      <point x="26" y="-32"/>
      <point x="12" y="-47"/>
      <point x="-6" y="-47" type="curve" smooth="yes"/>
      <point x="-19" y="-47"/>
      <point x="-33" y="-41"/>
      <point x="-43" y="-31" type="curve"/>
      <point x="-142" y="-180" type="line"/>
      <point x="-116" y="-202"/>
      <point x="-73" y="-215"/>
    </contour>
  </outline>
</glyph>
<glyph name="k" format="2">
  <advance width="586"/>
  <unicode hex="006B"/>
  <outline>
    <contour>
      <point x="189" y="95" type="line"/>
      <point x="608" y="500" type="line"/>
      <point x="398" y="500" type="line"/>
      <point x="105" y="220" type="line"/>
    </contour>
    <contour>
      <point x="3" y="0" type="line"/>
      <point x="183" y="0" type="line"/>
      <point x="300" y="700" type="line"/>
      <point x="120" y="700" type="line"/>
    </contour>
    <contour>
      <point x="327" y="0" type="line"/>
      <point x="534" y="0" type="line"/>
      <point x="355" y="323" type="line"/>
      <point x="217" y="200" type="line"/>
    </contour>
  </outline>
</glyph>
<glyph name="l" format="2">
  <advance width="270"/>
  <unicode hex="006C"/>
  <outline>
    <contour>
      <point x="3" y="0" type="line"/>
      <point x="183" y="0" type="line"/>
      <point x="300" y="700" type="line"/>
      <point x="120" y="700" type="line"/>
    </contour>
  </outline>
</glyph>
<glyph name="m" format="2">
  <advance width="891"/>
  <unicode hex="006D"/>
  <outline>
    <contour>
      <point x="3" y="0" type="line"/>
      <point x="183" y="0" type="line"/>
      <point x="251" y="408" type="line"/>
      <point x="257" y="500" type="line"/>
      <point x="87" y="500" type="line"/>
    </contour>
    <contour>
      <point x="316" y="0" type="line"/>
      <point x="496" y="0" type="line"/>
      <point x="544" y="286" type="line"/>
      <point x="359" y="256" type="line"/>
    </contour>
    <contour>
      <point x="628" y="0" type="line"/>
      <point x="808" y="0" type="line"/>
      <point x="856" y="286" type="line"/>
      <point x="671" y="256" type="line"/>
    </contour>
    <component base="arch" xOffset="175"/>
    <component base="arch" xOffset="487"/>
  </outline>
</glyph>
<glyph name="n" format="2">
  <advance width="578"/>
  <unicode hex="006E"/>
  <anchor x="249" y="0" name="bottom"/>
  <anchor x="390" y="500" name="top"/>
  <outline>
    <contour>
      <point x="3" y="0" type="line"/>
      <point x="183" y="0" type="line"/>
      <point x="251" y="408" type="line"/>
      <point x="257" y="500" type="line"/>
      <point x="87" y="500" type="line"/>
    </contour>
    <contour>
      <point x="315" y="0" type="line"/>
      <point x="495" y="0" type="line"/>
      <point x="543" y="286" type="line"/>
      <point x="358" y="256" type="line"/>
    </contour>
    <component base="arch" xOffset="175"/>
  </outline>
</glyph>
<glyph name="o" format="2">
  <advance width="593"/>
  <unicode hex="006F"/>
  <anchor x="328" y="500" name="top"/>
  <outline>
    <contour>
      <point x="266" y="-12" type="curve" smooth="yes"/>
      <point x="418" y="-12"/>
      <point x="541" y="91"/>
      <point x="566" y="239" type="curve" smooth="yes"/>
      <point x="593" y="399"/>
      <point x="494" y="512"/>
      <point x="328" y="512" type="curve" smooth="yes"/>
      <point x="175" y="512"/>
      <point x="52" y="409"/>
      <point x="27" y="261" type="curve" smooth="yes"/>
      <point x="0" y="101"/>
      <point x="100" y="-12"/>
    </contour>
    <contour>
      <point x="270" y="154" type="curve" smooth="yes"/>
      <point x="224" y="154"/>
      <point x="200" y="189"/>
      <point x="208" y="239" type="curve" smooth="yes"/>
      <point x="218" y="301"/>
      <point x="268" y="346"/>
      <point x="324" y="346" type="curve" smooth="yes"/>
      <point x="369" y="346"/>
      <point x="393" y="311"/>
      <point x="385" y="261" type="curve" smooth="yes"/>
      <point x="375" y="199"/>
      <point x="326" y="154"/>
    </contour>
  </outline>
</glyph>
<glyph name="p" format="2">
  <advance width="612"/>
  <unicode hex="0070"/>
  <outline>
    <contour>
      <point x="-25" y="-200" type="line"/>
      <point x="155" y="-200" type="line"/>
      <point x="256" y="408" type="line"/>
      <point x="262" y="500" type="line"/>
      <point x="92" y="500" type="line"/>
    </contour>
    <component base="Bowl" xScale="-1.0" yScale="-1.0" xOffset="601" yOffset="500"/>
  </outline>
</glyph>
<glyph name="q" format="2">
  <advance width="626"/>
  <unicode hex="0071"/>
  <outline>
    <contour>
      <point x="321" y="-200" type="line"/>
      <point x="501" y="-200" type="line"/>
      <point x="618" y="500" type="line"/>
      <point x="448" y="500" type="line"/>
      <point x="422" y="407" type="line"/>
    </contour>
    <component base="Bowl" xOffset="25"/>
  </outline>
</glyph>
<glyph name="r" format="2">
  <advance width="417"/>
  <unicode hex="0072"/>
  <anchor x="122" y="0" name="bottom"/>
  <anchor x="230" y="500" name="top"/>
  <outline>
    <contour>
      <point x="3" y="0" type="line"/>
      <point x="183" y="0" type="line"/>
      <point x="267" y="500" type="line"/>
      <point x="87" y="500" type="line"/>
    </contour>
    <contour>
      <point x="183" y="251" type="curve"/>
      <point x="225" y="251" type="line"/>
      <point x="233" y="299"/>
      <point x="320" y="326"/>
      <point x="415" y="326" type="curve"/>
      <point x="444" y="502" type="line"/>
      <point x="336" y="502"/>
      <point x="210" y="413"/>
    </contour>
  </outline>
</glyph>
<glyph name="s" format="2">
  <advance width="491"/>
  <unicode hex="0073"/>
  <anchor x="190" y="-12" name="bottom"/>
  <anchor x="291" y="500" name="top"/>
  <outline>
    <contour>
      <point x="190" y="-12" type="curve" smooth="yes"/>
      <point x="323" y="-12"/>
      <point x="450" y="46"/>
      <point x="450" y="170" type="curve" smooth="yes"/>
      <point x="450" y="240"/>
      <point x="401" y="289"/>
      <point x="324" y="308" type="curve" smooth="yes"/>
      <point x="284" y="318" type="line" smooth="yes"/>
      <point x="249" y="327"/>
      <point x="232" y="337"/>
      <point x="232" y="351" type="curve" smooth="yes"/>
      <point x="232" y="370"/>
      <point x="252" y="382"/>
      <point x="272" y="382" type="curve" smooth="yes"/>
      <point x="304" y="382"/>
      <point x="324" y="371"/>
      <point x="330" y="344" type="curve"/>
      <point x="478" y="397" type="line"/>
      <point x="460" y="465"/>
      <point x="409" y="512"/>
      <point x="291" y="512" type="curve" smooth="yes"/>
      <point x="151" y="512"/>
      <point x="51" y="440"/>
      <point x="51" y="322" type="curve" smooth="yes"/>
      <point x="51" y="261"/>
      <point x="88" y="213"/>
      <point x="163" y="194" type="curve" smooth="yes"/>
      <point x="202" y="184" type="line" smooth="yes"/>
      <point x="236" y="175"/>
      <point x="252" y="164"/>
      <point x="252" y="148" type="curve" smooth="yes"/>
      <point x="252" y="128"/>
      <point x="234" y="117"/>
      <point x="212" y="117" type="curve" smooth="yes"/>
      <point x="192" y="117"/>
      <point x="163" y="123"/>
      <point x="153" y="159" type="curve"/>
      <point x="0" y="103" type="line"/>
      <point x="12" y="31"/>
      <point x="90" y="-12"/>
    </contour>
  </outline>
</glyph>
<glyph name="t" format="2">
  <advance width="425"/>
  <unicode hex="0074"/>
  <anchor x="198" y="0" name="bottom"/>
  <anchor x="360" y="726" name="top_caron"/>
  <outline>
    <contour>
      <point x="234" y="-12" type="curve" smooth="yes"/>
      <point x="281" y="-12"/>
      <point x="339" y="13"/>
      <point x="375" y="40" type="curve"/>
      <point x="336" y="170" type="line"/>
      <point x="325" y="163"/>
      <point x="305" y="155"/>
      <point x="294" y="155" type="curve" smooth="yes"/>
      <point x="269" y="155"/>
      <point x="262" y="169"/>
      <point x="268" y="207" type="curve" smooth="yes"/>
      <point x="343" y="656" type="line"/>
      <point x="163" y="656" type="line"/>
      <point x="80" y="158" type="line" smooth="yes"/>
      <point x="62" y="48"/>
      <point x="110" y="-12"/>
    </contour>
    <contour>
      <point x="37" y="350" type="line"/>
      <point x="395" y="350" type="line"/>
      <point x="420" y="500" type="line"/>
      <point x="62" y="500" type="line"/>
    </contour>
  </outline>
</glyph>
<glyph name="u" format="2">
  <advance width="579"/>
  <unicode hex="0075"/>
  <anchor x="492" y="0" name="ogonek"/>
  <anchor x="329" y="500" name="top"/>
  <outline>
    <contour>
      <point x="322" y="0" type="line"/>
      <point x="492" y="0" type="line"/>
      <point x="576" y="500" type="line"/>
      <point x="396" y="500" type="line"/>
      <point x="328" y="92" type="line"/>
    </contour>
    <contour>
      <point x="40" y="244" type="line"/>
      <point x="220" y="244" type="line"/>
      <point x="263" y="500" type="line"/>
      <point x="83" y="500" type="line"/>
    </contour>
    <component base="arch" xScale="-1.0" yScale="-1.0" xOffset="403" yOffset="500"/>
  </outline>
</glyph>
<glyph name="v" format="2">
  <advance width="590"/>
  <unicode hex="0076"/>
  <outline>
    <contour>
      <point x="181" y="0" type="line"/>
      <point x="342" y="0" type="line"/>
      <point x="627" y="500" type="line"/>
      <point x="441" y="500" type="line"/>
    </contour>
    <contour>
      <point x="164" y="0" type="line"/>
      <point x="325" y="0" type="line"/>
      <point x="233" y="500" type="line"/>
      <point x="47" y="500" type="line"/>
    </contour>
  </outline>
</glyph>
<glyph name="w" format="2">
  <advance width="893"/>
  <unicode hex="0077"/>
  <anchor x="489" y="500" name="top"/>
  <outline>
    <contour>
      <point x="143" y="0" type="line"/>
      <point x="308" y="0" type="line"/>
      <point x="241" y="500" type="line"/>
      <point x="57" y="500" type="line"/>
    </contour>
    <contour>
      <point x="164" y="0" type="line"/>
      <point x="319" y="0" type="line"/>
      <point x="551" y="500" type="line"/>
      <point x="400" y="500" type="line"/>
    </contour>
    <contour>
      <point x="489" y="0" type="line"/>
      <point x="644" y="0" type="line"/>
      <point x="577" y="500" type="line"/>
      <point x="426" y="500" type="line"/>
    </contour>
    <contour>
      <point x="490" y="0" type="line"/>
      <point x="665" y="0" type="line"/>
      <point x="920" y="500" type="line"/>
      <point x="736" y="500" type="line"/>
    </contour>
  </outline>
</glyph>
<glyph name="x" format="2">
  <advance width="592"/>
  <unicode hex="0078"/>
  <outline>
    <contour>
      <point x="-32" y="0" type="line"/>
      <point x="182" y="0" type="line"/>
      <point x="357" y="213" type="line"/>
      <point x="612" y="500" type="line"/>
      <point x="400" y="500" type="line"/>
      <point x="222" y="284" type="line"/>
    </contour>
    <contour>
      <point x="327" y="0" type="line"/>
      <point x="540" y="0" type="line"/>
      <point x="383" y="284" type="line"/>
      <point x="277" y="500" type="line"/>
      <point x="65" y="500" type="line"/>
      <point x="226" y="213" type="line"/>
    </contour>
  </outline>
</glyph>
<glyph name="y" format="2">
  <advance width="622"/>
  <unicode hex="0079"/>
  <anchor x="353" y="500" name="top"/>
  <outline>
    <contour>
      <point x="119" y="-212" type="curve" smooth="yes"/>
      <point x="245" y="-212"/>
      <point x="297" y="-130"/>
      <point x="362" y="-18" type="curve" smooth="yes"/>
      <point x="664" y="500" type="line"/>
      <point x="464" y="500" type="line"/>
      <point x="267" y="130" type="line"/>
      <point x="183" y="-10" type="line" smooth="yes"/>
      <point x="168" y="-36"/>
      <point x="146" y="-45"/>
      <point x="125" y="-45" type="curve" smooth="yes"/>
      <point x="110" y="-45"/>
      <point x="93" y="-37"/>
      <point x="81" y="-25" type="curve"/>
      <point x="-10" y="-170" type="line"/>
      <point x="16" y="-190"/>
      <point x="72" y="-212"/>
    </contour>
    <contour>
      <point x="198" y="0" type="line"/>
      <point x="368" y="0" type="line"/>
      <point x="329" y="130" type="line"/>
      <point x="242" y="500" type="line"/>
      <point x="42" y="500" type="line"/>
    </contour>
  </outline>
</glyph>
<glyph name="z" format="2">
  <advance width="464"/>
  <unicode hex="007A"/>
  <anchor x="274" y="500" name="top"/>
  <outline>
    <contour>
      <point x="89" y="14" type="line"/>
      <point x="465" y="375" type="line"/>
      <point x="381" y="490" type="line"/>
      <point x="-1" y="125" type="line"/>
    </contour>
    <contour>
      <point x="-22" y="0" type="line"/>
      <point x="402" y="0" type="line"/>
      <point x="426" y="144" type="line"/>
      <point x="105" y="144" type="line"/>
      <point x="-1" y="125" type="line"/>
    </contour>
    <contour>
      <point x="38" y="355" type="line"/>
      <point x="354" y="355" type="line"/>
      <point x="465" y="375" type="line"/>
      <point x="486" y="500" type="line"/>
      <point x="62" y="500" type="line"/>
    </contour>
  </outline>
</glyph>
<glyph name="braceleft" format="2">
  <advance width="402"/>
  <unicode hex="007B"/>
  <outline>
    <contour>
      <point x="66" y="339" type="line"/>
      <point x="261" y="339"/>
      <point x="310" y="368"/>
      <point x="332" y="502" type="curve" smooth="yes"/>
      <point x="353" y="625"/>
      <point x="372" y="662"/>
      <point x="421" y="662" type="curve"/>
      <point x="444" y="800" type="line"/>
      <point x="270" y="800"/>
      <point x="223" y="748"/>
      <point x="186" y="523" type="curve" smooth="yes"/>
      <point x="172" y="440"/>
      <point x="146" y="415"/>
      <point x="78" y="415" type="curve"/>
    </contour>
    <contour>
      <point x="293" y="-100" type="curve"/>
      <point x="317" y="38" type="line"/>
      <point x="262" y="38"/>
      <point x="260" y="64"/>
      <point x="279" y="176" type="curve" smooth="yes"/>
      <point x="303" y="321"/>
      <point x="257" y="361"/>
      <point x="70" y="361" type="curve"/>
      <point x="57" y="285" type="line"/>
      <point x="133" y="285"/>
      <point x="144" y="271"/>
      <point x="131" y="199" type="curve" smooth="yes"/>
      <point x="92" y="-37"/>
      <point x="128" y="-100"/>
    </contour>
  </outline>
</glyph>
<glyph name="bar" format="2">
  <advance width="255"/>
  <unicode hex="007C"/>
  <outline>
    <contour>
      <point x="-19" y="-220" type="line"/>
      <point x="116" y="-220" type="line"/>
      <point x="285" y="790" type="line"/>
      <point x="150" y="790" type="line"/>
    </contour>
  </outline>
</glyph>
<glyph name="asciitilde" format="2">
  <advance width="759"/>
  <unicode hex="007E"/>
  <outline>
    <contour>
      <point x="505" y="145" type="curve" smooth="yes"/>
      <point x="610" y="145"/>
      <point x="707" y="240"/>
      <point x="731" y="383" type="curve"/>
      <point x="592" y="393" type="line"/>
      <point x="581" y="347"/>
      <point x="548" y="320"/>
      <point x="508" y="320" type="curve" smooth="yes"/>
      <point x="485" y="320"/>
      <point x="469" y="349"/>
      <point x="458" y="373" type="curve" smooth="yes"/>
      <point x="437" y="462"/>
      <point x="373" y="488"/>
      <point x="277" y="488" type="curve" smooth="yes"/>
      <point x="172" y="488"/>
      <point x="74" y="393"/>
      <point x="50" y="250" type="curve"/>
      <point x="189" y="240" type="line"/>
      <point x="201" y="280"/>
      <point x="230" y="313"/>
      <point x="276" y="313" type="curve" smooth="yes"/>
      <point x="309" y="313"/>
      <point x="318" y="283"/>
      <point x="333" y="260" type="curve" smooth="yes"/>
      <point x="352" y="203"/>
      <point x="406" y="145"/>
    </contour>
  </outline>
</glyph>
<glyph name="cent" format="2">
  <advance width="545"/>
  <unicode hex="00A2"/>
  <outline>
    <contour>
      <point x="206" y="0" type="line"/>
      <point x="289" y="0" type="line"/>
      <point x="406" y="700" type="line"/>
      <point x="323" y="700" type="line"/>
    </contour>
    <component base="c" xOffset="-23" yOffset="110"/>
  </outline>
</glyph>
<glyph name="sterling" format="2">
  <advance width="613"/>
  <unicode hex="00A3"/>
  <outline>
    <contour>
      <point x="102" y="235" type="line"/>
      <point x="282" y="235" type="line"/>
      <point x="322" y="471" type="line" smooth="yes"/>
      <point x="331" y="527"/>
      <point x="366" y="560"/>
      <point x="410" y="560" type="curve" smooth="yes"/>
      <point x="435" y="560"/>
      <point x="453" y="547"/>
      <point x="446" y="509" type="curve"/>
      <point x="623" y="488" type="line"/>
      <point x="648" y="639"/>
      <point x="557" y="712"/>
      <point x="413" y="712" type="curve" smooth="yes"/>
      <point x="273" y="712"/>
      <point x="172" y="643"/>
      <point x="144" y="481" type="curve" smooth="yes"/>
    </contour>
    <contour>
      <point x="33" y="88" type="line"/>
      <point x="158" y="88"/>
      <point x="268" y="152"/>
      <point x="282" y="235" type="curve"/>
      <point x="102" y="235" type="line"/>
      <point x="97" y="202"/>
      <point x="62" y="170"/>
      <point x="34" y="170" type="curve"/>
    </contour>
    <contour>
      <point x="-2" y="0" type="line"/>
      <point x="541" y="0" type="line"/>
      <point x="569" y="170" type="line"/>
      <point x="26" y="170" type="line"/>
    </contour>
    <contour>
      <point x="44" y="272" type="line"/>
      <point x="497" y="272" type="line"/>
      <point x="520" y="412" type="line"/>
      <point x="67" y="412" type="line"/>
    </contour>
  </outline>
</glyph>
<glyph name="currency" format="2">
  <advance width="638"/>
  <unicode hex="00A4"/>
  <outline>
    <contour>
      <point x="313" y="131" type="curve" smooth="yes"/>
      <point x="437" y="131"/>
      <point x="540" y="217"/>
      <point x="561" y="339" type="curve" smooth="yes"/>
      <point x="583" y="474"/>
      <point x="500" y="569"/>
      <point x="360" y="569" type="curve" smooth="yes"/>
      <point x="235" y="569"/>
      <point x="132" y="483"/>
      <point x="112" y="361" type="curve" smooth="yes"/>
      <point x="89" y="226"/>
      <point x="172" y="131"/>
    </contour>
    <contour>
      <point x="136" y="91" type="line"/>
      <point x="303" y="238" type="line"/>
      <point x="215" y="333" type="line"/>
      <point x="51" y="188" type="line"/>
    </contour>
    <contour>
      <point x="459" y="91" type="line"/>
      <point x="568" y="188" type="line"/>
      <point x="441" y="333" type="line"/>
      <point x="330" y="238" type="line"/>
    </contour>
    <contour>
      <point x="313" y="281" type="curve" smooth="yes"/>
      <point x="286" y="281"/>
      <point x="267" y="300"/>
      <point x="267" y="327" type="curve" smooth="yes"/>
      <point x="267" y="381"/>
      <point x="306" y="419"/>
      <point x="360" y="419" type="curve" smooth="yes"/>
      <point x="387" y="419"/>
      <point x="406" y="400"/>
      <point x="406" y="372" type="curve" smooth="yes"/>
      <point x="406" y="319"/>
      <point x="367" y="281"/>
    </contour>
    <contour>
      <point x="240" y="359" type="line"/>
      <point x="350" y="454" type="line"/>
      <point x="213" y="609" type="line"/>
      <point x="104" y="512" type="line"/>
    </contour>
    <contour>
      <point x="448" y="368" type="line"/>
      <point x="622" y="512" type="line"/>
      <point x="537" y="609" type="line"/>
      <point x="360" y="463" type="line"/>
    </contour>
  </outline>
</glyph>
<glyph name="yen" format="2">
  <advance width="646"/>
  <unicode hex="00A5"/>
  <outline>
    <contour>
      <point x="415" y="287" type="line"/>
      <point x="716" y="700" type="line"/>
      <point x="501" y="700" type="line"/>
      <point x="244" y="318" type="line"/>
    </contour>
    <contour>
      <point x="186" y="0" type="line"/>
      <point x="371" y="0" type="line"/>
      <point x="427" y="336" type="line"/>
      <point x="242" y="336" type="line"/>
    </contour>
    <contour>
      <point x="68" y="164" type="line"/>
      <point x="543" y="164" type="line"/>
      <point x="558" y="256" type="line"/>
      <point x="83" y="256" type="line"/>
    </contour>
    <contour>
      <point x="88" y="284" type="line"/>
      <point x="563" y="284" type="line"/>
      <point x="578" y="376" type="line"/>
      <point x="103" y="376" type="line"/>
    </contour>
    <contour>
      <point x="243" y="287" type="line"/>
      <point x="414" y="318" type="line"/>
      <point x="285" y="700" type="line"/>
      <point x="80" y="700" type="line"/>
    </contour>
  </outline>
</glyph>
<glyph name="section" format="2">
  <advance width="482"/>
  <unicode hex="00A7"/>
  <outline>
    <contour>
      <point x="199" y="-91" type="curve" smooth="yes"/>
      <point x="322" y="-91"/>
      <point x="399" y="-34"/>
      <point x="416" y="64" type="curve" smooth="yes"/>
      <point x="430" y="146"/>
      <point x="383" y="215"/>
      <point x="302" y="238" type="curve" smooth="yes"/>
      <point x="224" y="260" type="line" smooth="yes"/>
      <point x="193" y="269"/>
      <point x="180" y="279"/>
      <point x="183" y="297" type="curve" smooth="yes"/>
      <point x="190" y="340"/>
      <point x="225" y="364"/>
      <point x="275" y="364" type="curve" smooth="yes"/>
      <point x="312" y="364"/>
      <point x="330" y="343"/>
      <point x="334" y="315" type="curve"/>
      <point x="458" y="344" type="line"/>
      <point x="439" y="428"/>
      <point x="378" y="476"/>
      <point x="271" y="476" type="curve" smooth="yes"/>
      <point x="150" y="476"/>
      <point x="70" y="418"/>
      <point x="54" y="319" type="curve" smooth="yes"/>
      <point x="39" y="232"/>
      <point x="88" y="172"/>
      <point x="166" y="150" type="curve" smooth="yes"/>
      <point x="242" y="129" type="line" smooth="yes"/>
      <point x="276" y="119"/>
      <point x="288" y="105"/>
      <point x="285" y="86" type="curve" smooth="yes"/>
      <point x="278" y="45"/>
      <point x="235" y="20"/>
      <point x="189" y="21" type="curve" smooth="yes"/>
      <point x="154" y="22"/>
      <point x="130" y="41"/>
      <point x="126" y="73" type="curve"/>
      <point x="-4" y="44" type="line"/>
      <point x="-3" y="-25"/>
      <point x="86" y="-91"/>
    </contour>
    <contour>
      <point x="242" y="145" type="curve" smooth="yes"/>
      <point x="365" y="145"/>
      <point x="442" y="202"/>
      <point x="458" y="299" type="curve" smooth="yes"/>
      <point x="472" y="382"/>
      <point x="426" y="453"/>
      <point x="344" y="474" type="curve" smooth="yes"/>
      <point x="267" y="494" type="line" smooth="yes"/>
      <point x="236" y="502"/>
      <point x="222" y="515"/>
      <point x="225" y="533" type="curve" smooth="yes"/>
      <point x="232" y="576"/>
      <point x="268" y="600"/>
      <point x="318" y="600" type="curve" smooth="yes"/>
      <point x="355" y="600"/>
      <point x="373" y="579"/>
      <point x="376" y="551" type="curve"/>
      <point x="504" y="581" type="line"/>
      <point x="484" y="664"/>
      <point x="423" y="712"/>
      <point x="313" y="712" type="curve" smooth="yes"/>
      <point x="192" y="712"/>
      <point x="113" y="654"/>
      <point x="96" y="555" type="curve" smooth="yes"/>
      <point x="82" y="468"/>
      <point x="130" y="408"/>
      <point x="209" y="386" type="curve" smooth="yes"/>
      <point x="285" y="365" type="line" smooth="yes"/>
      <point x="319" y="355"/>
      <point x="330" y="341"/>
      <point x="327" y="321" type="curve" smooth="yes"/>
      <point x="320" y="281"/>
      <point x="278" y="257"/>
      <point x="233" y="257" type="curve" smooth="yes"/>
      <point x="220" y="257"/>
      <point x="173" y="277"/>
      <point x="168" y="308" type="curve"/>
      <point x="55" y="285" type="line"/>
      <point x="55" y="213"/>
      <point x="137" y="145"/>
    </contour>
  </outline>
</glyph>
<glyph name="copyright" format="2">
  <advance width="773"/>
  <unicode hex="00A9"/>
  <anchor x="206" y="113" name="bottom"/>
  <anchor x="279" y="545" name="top"/>
  <outline>
    <contour>
      <point x="382" y="152" type="curve" smooth="yes"/>
      <point x="475" y="152"/>
      <point x="545" y="201"/>
      <point x="585" y="276" type="curve"/>
      <point x="473" y="316" type="line"/>
      <point x="452" y="285"/>
      <point x="431" y="262"/>
      <point x="387" y="262" type="curve" smooth="yes"/>
      <point x="346" y="262"/>
      <point x="323" y="295"/>
      <point x="331" y="342" type="curve" smooth="yes"/>
      <point x="341" y="400"/>
      <point x="385" y="438"/>
      <point x="432" y="438" type="curve" smooth="yes"/>
      <point x="464" y="438"/>
      <point x="480" y="420"/>
      <point x="488" y="387" type="curve"/>
      <point x="606" y="415" type="line"/>
      <point x="590" y="492"/>
      <point x="532" y="547"/>
      <point x="433" y="547" type="curve" smooth="yes"/>
      <point x="322" y="547"/>
      <point x="229" y="469"/>
      <point x="211" y="357" type="curve" smooth="yes"/>
      <point x="191" y="238"/>
      <point x="260" y="152"/>
    </contour>
    <contour>
      <point x="356" y="-11" type="curve" smooth="yes"/>
      <point x="560" y="-11"/>
      <point x="728" y="134"/>
      <point x="763" y="339" type="curve" smooth="yes"/>
      <point x="799" y="557"/>
      <point x="670" y="712"/>
      <point x="452" y="712" type="curve" smooth="yes"/>
      <point x="246" y="712"/>
      <point x="77" y="567"/>
      <point x="44" y="361" type="curve" smooth="yes"/>
      <point x="7" y="143"/>
      <point x="137" y="-11"/>
    </contour>
    <contour>
      <point x="349" y="99" type="curve" smooth="yes"/>
      <point x="211" y="99"/>
      <point x="130" y="198"/>
      <point x="154" y="339" type="curve" smooth="yes"/>
      <point x="180" y="493"/>
      <point x="306" y="602"/>
      <point x="458" y="602" type="curve" smooth="yes"/>
      <point x="595" y="602"/>
      <point x="676" y="502"/>
      <point x="653" y="361" type="curve" smooth="yes"/>
      <point x="627" y="208"/>
      <point x="501" y="99"/>
    </contour>
  </outline>
</glyph>
<glyph name="ordfeminine" format="2">
  <advance width="384"/>
  <unicode hex="00AA"/>
  <anchor x="377" y="400" name="ogonek"/>
  <anchor x="251" y="700" name="top"/>
  <outline>
    <contour>
      <point x="263" y="400" type="line"/>
      <point x="377" y="400" type="line"/>
      <point x="427" y="700" type="line"/>
      <point x="308" y="700" type="line"/>
      <point x="267" y="456" type="line"/>
    </contour>
    <contour>
      <point x="185" y="393" type="curve" smooth="yes"/>
      <point x="298" y="393"/>
      <point x="316" y="529"/>
      <point x="316" y="607" type="curve" smooth="yes"/>
      <point x="316" y="671"/>
      <point x="290" y="707"/>
      <point x="228" y="707" type="curve" smooth="yes"/>
      <point x="116" y="707"/>
      <point x="66" y="621"/>
      <point x="66" y="507" type="curve" smooth="yes"/>
      <point x="66" y="438"/>
      <point x="120" y="393"/>
    </contour>
    <contour>
      <point x="230" y="504" type="curve" smooth="yes"/>
      <point x="208" y="504"/>
      <point x="195" y="520"/>
      <point x="195" y="542" type="curve" smooth="yes"/>
      <point x="195" y="570"/>
      <point x="217" y="596"/>
      <point x="244" y="596" type="curve" smooth="yes"/>
      <point x="267" y="596"/>
      <point x="283" y="581"/>
      <point x="283" y="559" type="curve" smooth="yes"/>
      <point x="283" y="530"/>
      <point x="260" y="504"/>
    </contour>
  </outline>
</glyph>
<glyph name="logicalnot" format="2">
  <advance width="460"/>
  <unicode hex="00AC"/>
  <outline>
    <contour>
      <point x="43" y="265" type="line"/>
      <point x="413" y="265" type="line"/>
      <point x="437" y="409" type="line"/>
      <point x="67" y="409" type="line"/>
    </contour>
    <contour>
      <point x="247" y="135" type="line"/>
      <point x="391" y="135" type="line"/>
      <point x="437" y="409" type="line"/>
      <point x="293" y="409" type="line"/>
    </contour>
  </outline>
</glyph>
<glyph name="registered" format="2">
  <advance width="618"/>
  <unicode hex="00AE"/>
  <outline>
    <contour>
      <point x="304" y="144" type="curve" smooth="yes"/>
      <point x="454" y="144"/>
      <point x="596" y="266"/>
      <point x="621" y="417" type="curve" smooth="yes"/>
      <point x="648" y="580"/>
      <point x="537" y="712"/>
      <point x="374" y="712" type="curve" smooth="yes"/>
      <point x="223" y="712"/>
      <point x="82" y="590"/>
      <point x="57" y="439" type="curve" smooth="yes"/>
      <point x="29" y="276"/>
      <point x="140" y="144"/>
    </contour>
    <contour>
      <point x="304" y="216" type="curve" smooth="yes"/>
      <point x="175" y="216"/>
      <point x="108" y="296"/>
      <point x="130" y="427" type="curve" smooth="yes"/>
      <point x="151" y="553"/>
      <point x="251" y="640"/>
      <point x="374" y="640" type="curve" smooth="yes"/>
      <point x="502" y="640"/>
      <point x="570" y="559"/>
      <point x="548" y="429" type="curve" smooth="yes"/>
      <point x="527" y="303"/>
      <point x="426" y="216"/>
    </contour>
    <contour>
      <point x="207" y="292" type="line"/>
      <point x="284" y="292" type="line"/>
      <point x="299" y="384" type="line"/>
      <point x="329" y="384" type="line"/>
      <point x="366" y="292" type="line"/>
      <point x="450" y="292" type="line"/>
      <point x="409" y="396" type="line"/>
      <point x="446" y="412"/>
      <point x="465" y="441"/>
      <point x="470" y="473" type="curve" smooth="yes"/>
      <point x="481" y="537"/>
      <point x="437" y="584"/>
      <point x="371" y="584" type="curve" smooth="yes"/>
      <point x="256" y="583" type="line"/>
    </contour>
    <contour>
      <point x="311" y="455" type="line"/>
      <point x="321" y="513" type="line"/>
      <point x="367" y="513" type="line" smooth="yes"/>
      <point x="387" y="513"/>
      <point x="395" y="506"/>
      <point x="393" y="495" type="curve" smooth="yes"/>
      <point x="389" y="472"/>
      <point x="365" y="455"/>
      <point x="345" y="455" type="curve" smooth="yes"/>
    </contour>
  </outline>
</glyph>
<glyph name="degree" format="2">
  <advance width="382"/>
  <unicode hex="00B0"/>
  <outline>
    <contour>
      <point x="217" y="405" type="curve" smooth="yes"/>
      <point x="327" y="405"/>
      <point x="405" y="477"/>
      <point x="405" y="582" type="curve" smooth="yes"/>
      <point x="405" y="657"/>
      <point x="349" y="712"/>
      <point x="269" y="712" type="curve" smooth="yes"/>
      <point x="159" y="712"/>
      <point x="81" y="640"/>
      <point x="81" y="535" type="curve" smooth="yes"/>
      <point x="81" y="460"/>
      <point x="137" y="405"/>
    </contour>
    <contour>
      <point x="235" y="512" type="curve" smooth="yes"/>
      <point x="214" y="512"/>
      <point x="199" y="529"/>
      <point x="199" y="552" type="curve" smooth="yes"/>
      <point x="199" y="583"/>
      <point x="221" y="605"/>
      <point x="251" y="605" type="curve" smooth="yes"/>
      <point x="272" y="605"/>
      <point x="287" y="588"/>
      <point x="287" y="565" type="curve" smooth="yes"/>
      <point x="287" y="534"/>
      <point x="265" y="512"/>
    </contour>
  </outline>
</glyph>
<glyph name="plusminus" format="2">
  <advance width="640"/>
  <unicode hex="00B1"/>
  <outline>
    <contour>
      <point x="238" y="178" type="line"/>
      <point x="378" y="178" type="line"/>
      <point x="450" y="608" type="line"/>
      <point x="310" y="608" type="line"/>
    </contour>
    <contour>
      <point x="98" y="328" type="line"/>
      <point x="568" y="328" type="line"/>
      <point x="590" y="458" type="line"/>
      <point x="120" y="458" type="line"/>
    </contour>
    <contour>
      <point x="48" y="30" type="line"/>
      <point x="518" y="30" type="line"/>
      <point x="538" y="150" type="line"/>
      <point x="68" y="150" type="line"/>
    </contour>
  </outline>
</glyph>
<glyph name="micro" format="2">
  <advance width="579"/>
  <unicode hex="00B5"/>
  <outline>
    <contour>
      <point x="-34" y="-200" type="line"/>
      <point x="126" y="-200" type="line"/>
      <point x="176" y="99" type="line"/>
      <point x="196" y="99" type="line"/>
      <point x="263" y="500" type="line"/>
      <point x="83" y="500" type="line"/>
    </contour>
    <contour>
      <point x="250" y="-12" type="curve" smooth="yes"/>
      <point x="324" y="-12"/>
      <point x="373" y="71"/>
      <point x="399" y="229" type="curve"/>
      <point x="352" y="239" type="line"/>
      <point x="343" y="185"/>
      <point x="307" y="155"/>
      <point x="250" y="156" type="curve" smooth="yes"/>
      <point x="219" y="159"/>
      <point x="210" y="182"/>
      <point x="219" y="239" type="curve"/>
      <point x="148" y="219" type="line"/>
      <point x="122" y="65"/>
      <point x="164" y="-12"/>
    </contour>
    <contour>
      <point x="323" y="0" type="line"/>
      <point x="492" y="0" type="line"/>
      <point x="576" y="500" type="line"/>
      <point x="396" y="500" type="line"/>
      <point x="328" y="92" type="line"/>
    </contour>
  </outline>
</glyph>
<glyph name="paragraph" format="2">
  <advance width="621"/>
  <unicode hex="00B6"/>
  <outline>
    <contour>
      <point x="274" y="210" type="curve" smooth="yes"/>
      <point x="309" y="210" type="line"/>
      <point x="391" y="700" type="line"/>
      <point x="344" y="700" type="line" smooth="yes"/>
      <point x="186" y="700"/>
      <point x="64" y="605"/>
      <point x="41" y="467" type="curve" smooth="yes"/>
      <point x="16" y="317"/>
      <point x="116" y="210"/>
    </contour>
    <contour>
      <point x="226" y="-84" type="line"/>
      <point x="343" y="-84" type="line"/>
      <point x="474" y="700" type="line"/>
      <point x="357" y="700" type="line"/>
    </contour>
    <contour>
      <point x="388" y="-84" type="line"/>
      <point x="505" y="-84" type="line"/>
      <point x="636" y="700" type="line"/>
      <point x="519" y="700" type="line"/>
    </contour>
    <contour>
      <point x="435" y="530" type="line"/>
      <point x="502" y="530" type="line"/>
      <point x="530" y="700" type="line"/>
      <point x="463" y="700" type="line"/>
    </contour>
  </outline>
</glyph>
<glyph name="ordmasculine" format="2">
  <advance width="367"/>
  <unicode hex="00BA"/>
  <anchor x="180" y="400" name="bottom"/>
  <anchor x="180" y="550" name="center"/>
  <anchor x="325" y="406" name="ogonek"/>
  <anchor x="180" y="700" name="top"/>
  <anchor x="349" y="700" name="topright"/>
  <outline>
    <contour>
      <point x="221" y="393" type="curve" smooth="yes"/>
      <point x="311" y="393"/>
      <point x="382" y="453"/>
      <point x="397" y="539" type="curve" smooth="yes"/>
      <point x="413" y="637"/>
      <point x="351" y="707"/>
      <point x="247" y="707" type="curve" smooth="yes"/>
      <point x="156" y="707"/>
      <point x="84" y="647"/>
      <point x="70" y="561" type="curve" smooth="yes"/>
      <point x="53" y="463"/>
      <point x="117" y="393"/>
    </contour>
    <contour>
      <point x="215" y="504" type="curve" smooth="yes"/>
      <point x="195" y="504"/>
      <point x="186" y="518"/>
      <point x="190" y="539" type="curve" smooth="yes"/>
      <point x="195" y="572"/>
      <point x="223" y="597"/>
      <point x="253" y="597" type="curve" smooth="yes"/>
      <point x="272" y="597"/>
      <point x="281" y="582"/>
      <point x="278" y="561" type="curve" smooth="yes"/>
      <point x="272" y="528"/>
      <point x="244" y="504"/>
    </contour>
  </outline>
</glyph>
<glyph name="AE" format="2">
  <advance width="1035"/>
  <unicode hex="00C6"/>
  <outline>
    <contour>
      <point x="-35" y="0" type="line"/>
      <point x="179" y="0" type="line"/>
      <point x="646" y="700" type="line"/>
      <point x="450" y="700" type="line"/>
    </contour>
    <contour>
      <point x="171" y="112" type="line"/>
      <point x="583" y="112" type="line"/>
      <point x="610" y="275" type="line"/>
      <point x="198" y="275" type="line"/>
    </contour>
    <contour>
      <point x="597" y="0" type="line"/>
      <point x="943" y="0" type="line"/>
      <point x="972" y="170" type="line"/>
      <point x="626" y="170" type="line"/>
    </contour>
    <contour>
      <point x="467" y="0" type="line"/>
      <point x="657" y="0" type="line"/>
      <point x="774" y="700" type="line"/>
      <point x="584" y="700" type="line"/>
    </contour>
    <contour>
      <point x="642" y="268" type="line"/>
      <point x="927" y="268" type="line"/>
      <point x="955" y="433" type="line"/>
      <point x="670" y="433" type="line"/>
    </contour>
    <contour>
      <point x="433" y="530" type="line"/>
      <point x="1025" y="530" type="line"/>
      <point x="1053" y="700" type="line"/>
      <point x="461" y="700" type="line"/>
    </contour>
  </outline>
</glyph>
<glyph name="Idieresis" format="2">
  <advance width="333"/>
  <unicode hex="00CF"/>
  <anchor x="128" y="0" name="bottom"/>
  <anchor x="222" y="0" name="ogonek"/>
  <anchor x="245" y="700" name="top"/>
  <anchor x="100" y="700" name="topleft"/>
  <outline>
    <contour>
      <point x="168" y="769" type="curve" smooth="yes"/>
      <point x="216" y="769"/>
      <point x="256" y="809"/>
      <point x="256" y="857" type="curve" smooth="yes"/>
      <point x="256" y="905"/>
      <point x="216" y="945"/>
      <point x="168" y="945" type="curve" smooth="yes"/>
      <point x="120" y="945"/>
      <point x="80" y="905"/>
      <point x="80" y="857" type="curve" smooth="yes"/>
      <point x="80" y="809"/>
      <point x="120" y="769"/>
    </contour>
    <contour>
      <point x="368" y="769" type="curve" smooth="yes"/>
      <point x="416" y="769"/>
      <point x="456" y="809"/>
      <point x="456" y="857" type="curve" smooth="yes"/>
      <point x="456" y="905"/>
      <point x="416" y="945"/>
      <point x="368" y="945" type="curve" smooth="yes"/>
      <point x="320" y="945"/>
      <point x="280" y="905"/>
      <point x="280" y="857" type="curve" smooth="yes"/>
      <point x="280" y="809"/>
      <point x="320" y="769"/>
    </contour>
    <component base="I" xOffset="15"/>
  </outline>
</glyph>
<glyph name="Eth" format="2">
  <advance width="741"/>
  <unicode hex="00D0"/>
  <anchor x="408" y="700" name="top"/>
  <outline>
    <contour>
      <point x="46" y="287" type="line"/>
      <point x="384" y="287" type="line"/>
      <point x="405" y="414" type="line"/>
      <point x="67" y="414" type="line"/>
    </contour>
    <component base="D" xOffset="30"/>
  </outline>
</glyph>
<glyph name="multiply" format="2">
  <advance width="640"/>
  <unicode hex="00D7"/>
  <outline>
    <contour>
      <point x="418" y="79" type="line"/>
      <point x="527" y="176" type="line"/>
      <point x="238" y="517" type="line"/>
      <point x="129" y="420" type="line"/>
    </contour>
    <contour>
      <point x="174" y="79" type="line"/>
      <point x="566" y="420" type="line"/>
      <point x="481" y="517" type="line"/>
      <point x="89" y="176" type="line"/>
    </contour>
  </outline>
</glyph>
<glyph name="Oslash" format="2">
  <advance width="808"/>
  <unicode hex="00D8"/>
  <anchor x="393" y="0" name="bottom"/>
  <anchor x="431" y="350" name="center"/>
  <anchor x="527" y="10" name="ogonek"/>
  <anchor x="445" y="700" name="top"/>
  <anchor x="97" y="700" name="topleft"/>
  <anchor x="847" y="700" name="topright"/>
  <outline>
    <contour>
      <point x="-22" y="0" type="line"/>
      <point x="142" y="0" type="line"/>
      <point x="863" y="700" type="line"/>
      <point x="697" y="700" type="line"/>
    </contour>
    <component base="O" xOffset="-3"/>
  </outline>
</glyph>
<glyph name="Thorn" format="2">
  <advance width="645"/>
  <unicode hex="00DE"/>
  <outline>
    <contour>
      <point x="211" y="111" type="line"/>
      <point x="348" y="111" type="line" smooth="yes"/>
      <point x="525" y="111"/>
      <point x="655" y="235"/>
      <point x="655" y="391" type="curve" smooth="yes"/>
      <point x="655" y="517"/>
      <point x="550" y="601"/>
      <point x="418" y="601" type="curve" smooth="yes"/>
      <point x="293" y="601" type="line"/>
      <point x="264" y="432" type="line"/>
      <point x="392" y="432" type="line" smooth="yes"/>
      <point x="437" y="432"/>
      <point x="461" y="406"/>
      <point x="461" y="368" type="curve" smooth="yes"/>
      <point x="461" y="326"/>
      <point x="426" y="281"/>
      <point x="354" y="281" type="curve" smooth="yes"/>
      <point x="239" y="281" type="line"/>
    </contour>
    <contour>
      <point x="28" y="1" type="line"/>
      <point x="218" y="1" type="line"/>
      <point x="335" y="701" type="line"/>
      <point x="145" y="701" type="line"/>
    </contour>
  </outline>
</glyph>
<glyph name="germandbls" format="2">
  <advance width="609"/>
  <unicode hex="00DF"/>
  <outline>
    <contour>
      <point x="3" y="0" type="line"/>
      <point x="183" y="0" type="line"/>
      <point x="262" y="471" type="line" smooth="yes"/>
      <point x="271" y="527"/>
      <point x="313" y="560"/>
      <point x="368" y="560" type="curve" smooth="yes"/>
      <point x="403" y="560"/>
      <point x="429" y="546"/>
      <point x="423" y="513" type="curve" smooth="yes"/>
      <point x="415" y="464"/>
      <point x="375" y="435"/>
      <point x="331" y="435" type="curve" smooth="yes"/>
      <point x="325" y="435" type="line"/>
      <point x="301" y="294" type="line"/>
      <point x="343" y="294" type="line" smooth="yes"/>
      <point x="479" y="294"/>
      <point x="584" y="397"/>
      <point x="599" y="488" type="curve" smooth="yes"/>
      <point x="624" y="641"/>
      <point x="526" y="712"/>
      <point x="371" y="712" type="curve" smooth="yes"/>
      <point x="220" y="712"/>
      <point x="111" y="643"/>
      <point x="84" y="481" type="curve" smooth="yes"/>
    </contour>
    <contour>
      <point x="252" y="0" type="line"/>
      <point x="316" y="0" type="line" smooth="yes"/>
      <point x="452" y="0"/>
      <point x="553" y="67"/>
      <point x="574" y="191" type="curve" smooth="yes"/>
      <point x="601" y="352"/>
      <point x="521" y="409"/>
      <point x="325" y="409" type="curve" smooth="yes"/>
      <point x="321" y="409" type="line"/>
      <point x="298" y="276" type="line"/>
      <point x="340" y="276" type="line" smooth="yes"/>
      <point x="382" y="276"/>
      <point x="404" y="259"/>
      <point x="399" y="232" type="curve" smooth="yes"/>
      <point x="393" y="196"/>
      <point x="353" y="163"/>
      <point x="309" y="163" type="curve" smooth="yes"/>
      <point x="279" y="163" type="line"/>
    </contour>
  </outline>
</glyph>
<glyph name="ae" format="2">
  <advance width="889"/>
  <unicode hex="00E6"/>
  <anchor x="572" y="0" name="bottom"/>
  <anchor x="769" y="50" name="ogonek"/>
  <anchor x="657" y="500" name="top"/>
  <outline>
    <contour>
      <point x="329" y="160" type="line"/>
      <point x="458" y="160" type="line"/>
      <point x="477" y="276" type="line" smooth="yes"/>
      <point x="500" y="414"/>
      <point x="432" y="512"/>
      <point x="291" y="512" type="curve" smooth="yes"/>
      <point x="187" y="512"/>
      <point x="108" y="465"/>
      <point x="47" y="383" type="curve"/>
      <point x="203" y="324" type="line"/>
      <point x="229" y="352"/>
      <point x="251" y="368"/>
      <point x="287" y="368" type="curve" smooth="yes"/>
      <point x="361" y="368"/>
      <point x="347" y="320"/>
      <point x="339" y="250" type="curve" smooth="yes"/>
    </contour>
    <contour>
      <point x="179" y="-12" type="curve" smooth="yes"/>
      <point x="338" y="-12"/>
      <point x="443" y="64"/>
      <point x="467" y="209" type="curve"/>
      <point x="326" y="200" type="line"/>
      <point x="318" y="151"/>
      <point x="283" y="114"/>
      <point x="228" y="114" type="curve"/>
      <point x="199" y="114"/>
      <point x="187" y="123"/>
      <point x="189" y="137" type="curve"/>
      <point x="194" y="170"/>
      <point x="220" y="191"/>
      <point x="276" y="191" type="curve"/>
      <point x="348" y="191" type="line"/>
      <point x="365" y="294" type="line"/>
      <point x="212" y="294" type="line" smooth="yes"/>
      <point x="96" y="294"/>
      <point x="27" y="250"/>
      <point x="11" y="152" type="curve" smooth="yes"/>
      <point x="-7" y="47"/>
      <point x="57" y="-12"/>
    </contour>
    <component base="e" xOffset="313"/>
  </outline>
</glyph>
<glyph name="idieresis" format="2">
  <advance width="290"/>
  <unicode hex="00EF"/>
  <anchor x="228.337" y="748" name="top"/>
  <anchor x="103" y="0" name="bottom"/>
  <anchor x="193" y="0" name="ogonek"/>
  <outline>
    <contour>
      <point x="112" y="569" type="curve" smooth="yes"/>
      <point x="160" y="569"/>
      <point x="200" y="609"/>
      <point x="200" y="657" type="curve" smooth="yes"/>
      <point x="200" y="705"/>
      <point x="160" y="745"/>
      <point x="112" y="745" type="curve" smooth="yes"/>
      <point x="64" y="745"/>
      <point x="24" y="705"/>
      <point x="24" y="657" type="curve" smooth="yes"/>
      <point x="24" y="609"/>
      <point x="64" y="569"/>
    </contour>
    <contour>
      <point x="312" y="569" type="curve" smooth="yes"/>
      <point x="360" y="569"/>
      <point x="400" y="609"/>
      <point x="400" y="657" type="curve" smooth="yes"/>
      <point x="400" y="705"/>
      <point x="360" y="745"/>
      <point x="312" y="745" type="curve" smooth="yes"/>
      <point x="264" y="745"/>
      <point x="224" y="705"/>
      <point x="224" y="657" type="curve" smooth="yes"/>
      <point x="224" y="609"/>
      <point x="264" y="569"/>
    </contour>
    <component base="idotless"/>
  </outline>
</glyph>
<glyph name="eth" format="2">
  <advance width="571"/>
  <unicode hex="00F0"/>
  <outline>
    <contour>
      <point x="248" y="-12" type="curve" smooth="yes"/>
      <point x="390" y="-12"/>
      <point x="506" y="86"/>
      <point x="531" y="231" type="curve"/>
      <point x="454" y="310" type="line"/>
      <point x="466" y="371"/>
      <point x="366" y="444"/>
      <point x="275" y="444" type="curve" smooth="yes"/>
      <point x="140" y="444"/>
      <point x="42" y="354"/>
      <point x="21" y="227" type="curve" smooth="yes"/>
      <point x="-2" y="87"/>
      <point x="92" y="-12"/>
    </contour>
    <contour>
      <point x="251" y="150" type="curve" smooth="yes"/>
      <point x="216" y="150"/>
      <point x="198" y="173"/>
      <point x="203" y="205" type="curve" smooth="yes"/>
      <point x="211" y="249"/>
      <point x="250" y="281"/>
      <point x="295" y="281" type="curve" smooth="yes"/>
      <point x="331" y="281"/>
      <point x="350" y="259"/>
      <point x="344" y="227" type="curve" smooth="yes"/>
      <point x="337" y="183"/>
      <point x="298" y="150"/>
    </contour>
    <contour>
      <point x="378" y="338" type="curve"/>
      <point x="532" y="231" type="line"/>
      <point x="574" y="445"/>
      <point x="559" y="683"/>
      <point x="236" y="730" type="curve"/>
      <point x="191" y="587" type="line"/>
      <point x="387" y="540"/>
      <point x="402" y="474"/>
    </contour>
    <contour>
      <point x="262" y="460" type="line"/>
      <point x="578" y="630" type="line"/>
      <point x="545" y="692" type="line"/>
      <point x="232" y="523" type="line"/>
    </contour>
  </outline>
</glyph>
<glyph name="divide" format="2">
  <advance width="640"/>
  <unicode hex="00F7"/>
  <outline>
    <contour>
      <point x="101" y="226" type="line"/>
      <point x="531" y="226" type="line"/>
      <point x="555" y="370" type="line"/>
      <point x="125" y="370" type="line"/>
    </contour>
    <contour>
      <point x="299" y="50" type="curve" smooth="yes"/>
      <point x="332" y="50"/>
      <point x="364" y="79"/>
      <point x="370" y="112" type="curve" smooth="yes"/>
      <point x="377" y="157"/>
      <point x="344" y="196"/>
      <point x="299" y="196" type="curve" smooth="yes"/>
      <point x="266" y="196"/>
      <point x="234" y="167"/>
      <point x="229" y="134" type="curve" smooth="yes"/>
      <point x="221" y="89"/>
      <point x="254" y="50"/>
    </contour>
    <contour>
      <point x="357" y="400" type="curve" smooth="yes"/>
      <point x="390" y="400"/>
      <point x="422" y="428"/>
      <point x="427" y="461" type="curve" smooth="yes"/>
      <point x="435" y="506"/>
      <point x="402" y="545"/>
      <point x="357" y="545" type="curve" smooth="yes"/>
      <point x="324" y="545"/>
      <point x="292" y="516"/>
      <point x="286" y="483" type="curve" smooth="yes"/>
      <point x="279" y="438"/>
      <point x="312" y="400"/>
    </contour>
  </outline>
</glyph>
<glyph name="oslash" format="2">
  <advance width="602"/>
  <unicode hex="00F8"/>
  <anchor x="335" y="500" name="top"/>
  <outline>
    <contour>
      <point x="-30" y="0" type="line"/>
      <point x="105" y="0" type="line"/>
      <point x="632" y="500" type="line"/>
      <point x="496" y="500" type="line"/>
    </contour>
    <component base="o" xOffset="7"/>
  </outline>
</glyph>
<glyph name="thorn" format="2">
  <advance width="607"/>
  <unicode hex="00FE"/>
  <outline>
    <contour>
      <point x="-30" y="-200" type="line"/>
      <point x="150" y="-200" type="line"/>
      <point x="300" y="700" type="line"/>
      <point x="120" y="700" type="line"/>
    </contour>
    <component base="Bowl" xScale="-1.0" yScale="-1.0" xOffset="596" yOffset="500"/>
  </outline>
</glyph>
<glyph name="dcroat" format="2">
  <advance width="604"/>
  <unicode hex="0111"/>
  <anchor x="546" y="700" name="top"/>
  <anchor x="636" y="700" name="top_caron"/>
  <outline>
    <contour>
      <point x="309" y="545" type="line"/>
      <point x="663" y="545" type="line"/>
      <point x="681" y="650" type="line"/>
      <point x="327" y="650" type="line"/>
    </contour>
    <component base="d"/>
  </outline>
</glyph>
<glyph name="Hbar" format="2">
  <advance width="748"/>
  <unicode hex="0126"/>
  <outline>
    <contour>
      <point x="48" y="504" type="line"/>
      <point x="786" y="504" type="line"/>
      <point x="807" y="631" type="line"/>
      <point x="69" y="631" type="line"/>
    </contour>
    <component base="H"/>
  </outline>
</glyph>
<glyph name="hbar" format="2">
  <advance width="579"/>
  <unicode hex="0127"/>
  <anchor x="248" y="0" name="bottom"/>
  <anchor x="315" y="400" name="center"/>
  <anchor x="210" y="700" name="top"/>
  <outline>
    <contour>
      <point x="49" y="545" type="line"/>
      <point x="403" y="545" type="line"/>
      <point x="421" y="650" type="line"/>
      <point x="67" y="650" type="line"/>
    </contour>
    <component base="h"/>
  </outline>
</glyph>
<glyph name="Lslash" format="2">
  <advance width="554"/>
  <unicode hex="0141"/>
  <anchor x="246" y="0" name="bottom"/>
  <anchor x="295" y="350" name="center"/>
  <anchor x="229" y="700" name="top"/>
  <anchor x="343" y="759" name="top_caron"/>
  <anchor x="609" y="700" name="topright"/>
  <outline>
    <contour>
      <point x="-3" y="221" type="line"/>
      <point x="362" y="402" type="line"/>
      <point x="384" y="550" type="line"/>
      <point x="20" y="369" type="line"/>
    </contour>
    <component base="L" xOffset="1"/>
  </outline>
</glyph>
<glyph name="lslash" format="2">
  <advance width="292"/>
  <unicode hex="0142"/>
  <anchor x="104" y="0" name="bottom"/>
  <anchor x="216" y="670" name="top"/>
  <anchor x="313" y="700" name="top_caron"/>
  <outline>
    <contour>
      <point x="-5" y="204" type="line"/>
      <point x="310" y="358" type="line"/>
      <point x="331" y="496" type="line"/>
      <point x="15" y="342" type="line"/>
    </contour>
    <component base="l" xOffset="11"/>
  </outline>
</glyph>
<glyph name="Eng" format="2">
  <advance width="773"/>
  <unicode hex="014A"/>
  <anchor x="623" y="500" name="top"/>
  <anchor x="347" y="0" name="bottom"/>
  <outline>
    <contour>
      <point x="443" y="-215" type="curve" smooth="yes"/>
      <point x="565" y="-215"/>
      <point x="647" y="-148"/>
      <point x="667" y="-26" type="curve" smooth="yes"/>
      <point x="754" y="500" type="line"/>
      <point x="570" y="500" type="line"/>
      <point x="486" y="-2" type="line" smooth="yes"/>
      <point x="482" y="-27"/>
      <point x="461" y="-47"/>
      <point x="437" y="-47" type="curve" smooth="yes"/>
      <point x="430" y="-47"/>
      <point x="417" y="-45"/>
      <point x="407" y="-35" type="curve"/>
      <point x="316" y="-177" type="line"/>
      <point x="345" y="-199"/>
      <point x="389" y="-215"/>
    </contour>
    <component base="N"/>
  </outline>
</glyph>
<glyph name="eng" format="2">
  <advance width="578"/>
  <unicode hex="014B"/>
  <anchor x="448" y="500" name="top"/>
  <anchor x="249" y="0" name="bottom"/>
  <outline>
    <contour>
      <point x="270" y="-215" type="curve" smooth="yes"/>
      <point x="390" y="-215"/>
      <point x="471" y="-148"/>
      <point x="491" y="-26" type="curve" smooth="yes"/>
      <point x="533" y="230" type="line"/>
      <point x="354" y="230" type="line"/>
      <point x="314" y="-2" type="line" smooth="yes"/>
      <point x="310" y="-27"/>
      <point x="290" y="-47"/>
      <point x="266" y="-47" type="curve" smooth="yes"/>
      <point x="259" y="-47"/>
      <point x="246" y="-45"/>
      <point x="236" y="-35" type="curve"/>
      <point x="145" y="-177" type="line"/>
      <point x="174" y="-199"/>
      <point x="217" y="-215"/>
    </contour>
    <component base="n"/>
  </outline>
</glyph>
<glyph name="OE" format="2">
  <advance width="1098"/>
  <unicode hex="0152"/>
  <anchor x="359" y="0" name="bottom"/>
  <anchor x="418" y="350" name="center"/>
  <anchor x="683" y="10" name="ogonek"/>
  <anchor x="476" y="700" name="top"/>
  <anchor x="92" y="700" name="topleft"/>
  <anchor x="859" y="700" name="topright"/>
  <outline>
    <contour>
      <point x="360" y="-12" type="curve" smooth="yes"/>
      <point x="581" y="-12"/>
      <point x="738" y="201"/>
      <point x="738" y="428" type="curve" smooth="yes"/>
      <point x="738" y="594"/>
      <point x="625" y="711"/>
      <point x="465" y="711" type="curve" smooth="yes"/>
      <point x="215" y="711"/>
      <point x="39" y="537"/>
      <point x="39" y="292" type="curve" smooth="yes"/>
      <point x="39" y="119"/>
      <point x="172" y="-12"/>
    </contour>
    <contour>
      <point x="375" y="163" type="curve" smooth="yes"/>
      <point x="293" y="163"/>
      <point x="234" y="230"/>
      <point x="234" y="301" type="curve" smooth="yes"/>
      <point x="234" y="429"/>
      <point x="337" y="536"/>
      <point x="460" y="536" type="curve" smooth="yes"/>
      <point x="533" y="536"/>
      <point x="595" y="474"/>
      <point x="595" y="400" type="curve" smooth="yes"/>
      <point x="595" y="271"/>
      <point x="494" y="163"/>
    </contour>
    <component base="E" xOffset="512"/>
  </outline>
</glyph>
<glyph name="jdotless" format="2">
  <advance width="296"/>
  <unicode hex="0237"/>
  <anchor x="205" y="500" name="top"/>
  <outline>
    <contour>
      <point x="-26" y="-215" type="curve" smooth="yes"/>
      <point x="100" y="-215"/>
      <point x="188" y="-143"/>
      <point x="208" y="-21" type="curve" smooth="yes"/>
      <point x="295" y="500" type="line"/>
      <point x="115" y="500" type="line"/>
      <point x="30" y="-7" type="line" smooth="yes"/>
      <point x="26" y="-32"/>
      <point x="12" y="-47"/>
      <point x="-6" y="-47" type="curve" smooth="yes"/>
      <point x="-19" y="-47"/>
      <point x="-33" y="-41"/>
      <point x="-43" y="-31" type="curve"/>
      <point x="-142" y="-180" type="line"/>
      <point x="-116" y="-202"/>
      <point x="-73" y="-215"/>
    </contour>
  </outline>
</glyph>
<glyph name="gravecomb" format="2">
  <unicode hex="0300"/>
  <anchor x="270" y="500" name="_top"/>
  <anchor x="270" y="500" name="top"/>
  <outline>
    <contour>
      <point x="223" y="554" type="line"/>
      <point x="389" y="554" type="line"/>
      <point x="301" y="701" type="line"/>
      <point x="116" y="701" type="line"/>
    </contour>
  </outline>
</glyph>
<glyph name="circumflexcomb" format="2">
  <unicode hex="0302"/>
  <anchor x="270" y="500" name="_top"/>
  <outline>
    <contour>
      <point x="53" y="565" type="line"/>
      <point x="211" y="565" type="line"/>
      <point x="370" y="707" type="line"/>
      <point x="370" y="712" type="line"/>
      <point x="205" y="712" type="line"/>
    </contour>
    <contour>
      <point x="335" y="565" type="line"/>
      <point x="473" y="565" type="line"/>
      <point x="371" y="712" type="line"/>
      <point x="221" y="712" type="line"/>
      <point x="221" y="707" type="line"/>
    </contour>
  </outline>
</glyph>
<glyph name="tildecomb" format="2">
  <unicode hex="0303"/>
  <anchor x="240" y="500" name="_top"/>
  <anchor x="273" y="700" name="top"/>
  <outline>
    <contour>
      <point x="329" y="534" type="curve" smooth="yes"/>
      <point x="411" y="534"/>
      <point x="456" y="586"/>
      <point x="485" y="679" type="curve"/>
      <point x="374" y="679" type="line"/>
      <point x="367" y="658"/>
      <point x="357" y="640"/>
      <point x="333" y="640" type="curve" smooth="yes"/>
      <point x="289" y="640"/>
      <point x="314" y="712"/>
      <point x="210" y="712" type="curve" smooth="yes"/>
      <point x="130" y="712"/>
      <point x="85" y="673"/>
      <point x="53" y="567" type="curve"/>
      <point x="164" y="567" type="line"/>
      <point x="176" y="602"/>
      <point x="194" y="606"/>
      <point x="208" y="606" type="curve" smooth="yes"/>
      <point x="246" y="606"/>
      <point x="221" y="534"/>
    </contour>
  </outline>
</glyph>
<glyph name="brevecomb" format="2">
  <unicode hex="0306"/>
  <anchor x="244" y="500" name="_top"/>
  <outline>
    <contour>
      <point x="264" y="542" type="curve" smooth="yes"/>
      <point x="376" y="542"/>
      <point x="465" y="604"/>
      <point x="480" y="700" type="curve"/>
      <point x="316" y="700" type="line"/>
      <point x="312" y="677"/>
      <point x="294" y="661"/>
      <point x="272" y="661" type="curve" smooth="yes"/>
      <point x="249" y="661"/>
      <point x="235" y="677"/>
      <point x="239" y="700" type="curve"/>
      <point x="75" y="700" type="line"/>
      <point x="60" y="607"/>
      <point x="139" y="542"/>
    </contour>
  </outline>
</glyph>
<glyph name="dotaccentcomb" format="2">
  <unicode hex="0307"/>
  <anchor x="142" y="500" name="_top"/>
  <outline>
    <contour>
      <point x="167" y="548" type="curve" smooth="yes"/>
      <point x="221" y="548"/>
      <point x="267" y="594"/>
      <point x="267" y="648" type="curve" smooth="yes"/>
      <point x="267" y="702"/>
      <point x="221" y="748"/>
      <point x="167" y="748" type="curve" smooth="yes"/>
      <point x="113" y="748"/>
      <point x="67" y="702"/>
      <point x="67" y="648" type="curve" smooth="yes"/>
      <point x="67" y="594"/>
      <point x="113" y="548"/>
    </contour>
  </outline>
</glyph>
<glyph name="dieresiscomb" format="2">
  <unicode hex="0308"/>
  <anchor x="322" y="500" name="_top"/>
  <anchor x="363" y="748" name="top"/>
  <outline>
    <contour>
      <point x="213" y="569" type="curve" smooth="yes"/>
      <point x="261" y="569"/>
      <point x="301" y="609"/>
      <point x="301" y="657" type="curve" smooth="yes"/>
      <point x="301" y="705"/>
      <point x="261" y="745"/>
      <point x="213" y="745" type="curve" smooth="yes"/>
      <point x="165" y="745"/>
      <point x="125" y="705"/>
      <point x="125" y="657" type="curve" smooth="yes"/>
      <point x="125" y="609"/>
      <point x="165" y="569"/>
    </contour>
    <contour>
      <point x="483" y="569" type="curve" smooth="yes"/>
      <point x="531" y="569"/>
      <point x="571" y="609"/>
      <point x="571" y="657" type="curve" smooth="yes"/>
      <point x="571" y="705"/>
      <point x="531" y="745"/>
      <point x="483" y="745" type="curve" smooth="yes"/>
      <point x="435" y="745"/>
      <point x="395" y="705"/>
      <point x="395" y="657" type="curve" smooth="yes"/>
      <point x="395" y="609"/>
      <point x="435" y="569"/>
    </contour>
  </outline>
</glyph>
<glyph name="ringcomb" format="2">
  <unicode hex="030A"/>
  <anchor x="220" y="500" name="_top"/>
  <outline>
    <contour>
      <point x="235" y="520" type="curve" smooth="yes"/>
      <point x="309" y="520"/>
      <point x="383" y="572"/>
      <point x="382" y="661" type="curve" smooth="yes"/>
      <point x="381" y="729"/>
      <point x="325" y="779"/>
      <point x="254" y="779" type="curve" smooth="yes"/>
      <point x="178" y="779"/>
      <point x="107" y="726"/>
      <point x="107" y="637" type="curve" smooth="yes"/>
      <point x="107" y="568"/>
      <point x="165" y="520"/>
    </contour>
    <contour>
      <point x="237" y="616" type="curve" smooth="yes"/>
      <point x="222" y="616"/>
      <point x="212" y="626"/>
      <point x="212" y="639" type="curve" smooth="yes"/>
      <point x="212" y="665"/>
      <point x="229" y="683"/>
      <point x="252" y="683" type="curve" smooth="yes"/>
      <point x="267" y="683"/>
      <point x="277" y="673"/>
      <point x="277" y="659" type="curve" smooth="yes"/>
      <point x="277" y="634"/>
      <point x="260" y="616"/>
    </contour>
  </outline>
</glyph>
<glyph name="hungarumlautcomb" format="2">
  <unicode hex="030B"/>
  <anchor x="230" y="500" name="_top"/>
  <outline>
    <contour>
      <point x="281" y="554" type="line"/>
      <point x="433" y="554" type="line"/>
      <point x="580" y="700" type="line"/>
      <point x="405" y="700" type="line"/>
    </contour>
    <contour>
      <point x="51" y="554" type="line"/>
      <point x="201" y="554" type="line"/>
      <point x="346" y="700" type="line"/>
      <point x="171" y="700" type="line"/>
    </contour>
  </outline>
</glyph>
<glyph name="caroncomb" format="2">
  <unicode hex="030C"/>
  <anchor x="254" y="500" name="_top"/>
  <outline>
    <contour>
      <point x="178" y="554" type="line"/>
      <point x="343" y="554" type="line"/>
      <point x="495" y="700" type="line"/>
      <point x="337" y="700" type="line"/>
      <point x="178" y="559" type="line"/>
    </contour>
    <contour>
      <point x="177" y="554" type="line"/>
      <point x="327" y="554" type="line"/>
      <point x="327" y="559" type="line"/>
      <point x="213" y="700" type="line"/>
      <point x="75" y="700" type="line"/>
    </contour>
  </outline>
</glyph>
<glyph name="commaaccentcomb" format="2">
  <unicode hex="0326"/>
  <anchor x="79" y="0" name="_bottom"/>
  <outline>
    <contour>
      <point x="-75" y="-200" type="line"/>
      <point x="59" y="-200" type="line"/>
      <point x="170" y="-40" type="line"/>
      <point x="-2" y="-40" type="line"/>
    </contour>
  </outline>
</glyph>
<glyph name="cedillacomb" format="2">
  <unicode hex="0327"/>
  <anchor x="107" y="0" name="_bottom"/>
  <outline>
    <contour>
      <point x="32" y="-210" type="curve" smooth="yes"/>
      <point x="121" y="-210"/>
      <point x="174" y="-170"/>
      <point x="174" y="-103" type="curve" smooth="yes"/>
      <point x="174" y="-70"/>
      <point x="151" y="-42"/>
      <point x="111" y="-28" type="curve"/>
      <point x="140" y="6" type="line"/>
      <point x="42" y="6" type="line"/>
      <point x="-4" y="-69" type="line"/>
      <point x="31" y="-69"/>
      <point x="51" y="-78"/>
      <point x="51" y="-93" type="curve" smooth="yes"/>
      <point x="51" y="-109"/>
      <point x="33" y="-119"/>
      <point x="2" y="-119" type="curve" smooth="yes"/>
      <point x="-10" y="-119"/>
      <point x="-26" y="-114"/>
      <point x="-43" y="-105" type="curve"/>
      <point x="-71" y="-173" type="line"/>
      <point x="-40" y="-196"/>
      <point x="-2" y="-210"/>
    </contour>
  </outline>
</glyph>
<glyph name="ogonekcomb" format="2">
  <unicode hex="0328"/>
  <anchor x="178" y="0" name="_ogonek"/>
  <outline>
    <contour>
      <point x="111" y="-212" type="curve" smooth="yes"/>
      <point x="138" y="-212"/>
      <point x="162" y="-211"/>
      <point x="184" y="-199" type="curve"/>
      <point x="139" y="-85" type="line"/>
      <point x="134" y="-89"/>
      <point x="123" y="-95"/>
      <point x="111" y="-95" type="curve" smooth="yes"/>
      <point x="104" y="-95"/>
      <point x="100" y="-90"/>
      <point x="100" y="-83" type="curve" smooth="yes"/>
      <point x="100" y="-53"/>
      <point x="145" y="-18"/>
      <point x="178" y="0" type="curve"/>
      <point x="30" y="0" type="line"/>
      <point x="-25" y="-26"/>
      <point x="-37" y="-75"/>
      <point x="-37" y="-99" type="curve" smooth="yes"/>
      <point x="-37" y="-173"/>
      <point x="29" y="-212"/>
    </contour>
  </outline>
</glyph>
<glyph name="Germandbls" format="2">
  <advance width="684"/>
  <unicode hex="1E9E"/>
  <outline>
    <contour>
      <point x="18" y="0" type="line"/>
      <point x="208" y="0" type="line"/>
      <point x="288" y="480" type="line" smooth="yes"/>
      <point x="295" y="520"/>
      <point x="327" y="549"/>
      <point x="370" y="549" type="curve" smooth="yes"/>
      <point x="469" y="549"/>
      <point x="554" y="486"/>
      <point x="595" y="444" type="curve"/>
      <point x="708" y="574" type="line"/>
      <point x="646" y="638"/>
      <point x="533" y="712"/>
      <point x="394" y="712" type="curve" smooth="yes"/>
      <point x="231" y="712"/>
      <point x="128" y="654"/>
      <point x="110" y="548" type="curve" smooth="yes"/>
    </contour>
    <contour>
      <point x="384" y="-12" type="curve" smooth="yes"/>
      <point x="536" y="-12"/>
      <point x="627" y="62"/>
      <point x="649" y="191" type="curve" smooth="yes"/>
      <point x="672" y="327"/>
      <point x="598" y="409"/>
      <point x="410" y="409" type="curve" smooth="yes"/>
      <point x="356" y="409" type="line"/>
      <point x="335" y="286" type="line"/>
      <point x="402" y="286" type="line" smooth="yes"/>
      <point x="471" y="286"/>
      <point x="482" y="276"/>
      <point x="477" y="245" type="curve" smooth="yes"/>
      <point x="469" y="195"/>
      <point x="419" y="164"/>
      <point x="373" y="164" type="curve" smooth="yes"/>
      <point x="351" y="164"/>
      <point x="331" y="167"/>
      <point x="318" y="174" type="curve"/>
      <point x="269" y="8" type="line"/>
      <point x="305" y="-6"/>
      <point x="353" y="-12"/>
    </contour>
    <contour>
      <point x="336" y="293" type="line"/>
      <point x="467" y="293" type="line"/>
      <point x="696" y="564" type="line"/>
      <point x="581" y="656" type="line"/>
      <point x="353" y="409" type="line"/>
    </contour>
  </outline>
</glyph>
<glyph name="endash" format="2">
  <advance width="550"/>
  <unicode hex="2013"/>
  <outline>
    <contour>
      <point x="-5" y="223" type="line"/>
      <point x="545" y="223" type="line"/>
      <point x="571" y="373" type="line"/>
      <point x="21" y="373" type="line"/>
    </contour>
  </outline>
</glyph>
<glyph name="emdash" format="2">
  <advance width="1100"/>
  <unicode hex="2014"/>
  <outline>
    <contour>
      <point x="-5" y="223" type="line"/>
      <point x="1095" y="223" type="line"/>
      <point x="1121" y="373" type="line"/>
      <point x="21" y="373" type="line"/>
    </contour>
  </outline>
</glyph>
<glyph name="dagger" format="2">
  <advance width="494"/>
  <unicode hex="2020"/>
  <outline>
    <contour>
      <point x="114" y="0" type="line"/>
      <point x="296" y="0" type="line"/>
      <point x="323" y="429" type="line"/>
      <point x="404" y="700" type="line"/>
      <point x="242" y="700" type="line"/>
      <point x="231" y="429" type="line"/>
    </contour>
    <contour>
      <point x="48" y="346" type="line"/>
      <point x="269" y="381" type="line"/>
      <point x="477" y="346" type="line"/>
      <point x="505" y="512" type="line"/>
      <point x="285" y="477" type="line"/>
      <point x="76" y="512" type="line"/>
    </contour>
  </outline>
</glyph>
<glyph name="daggerdbl" format="2">
  <advance width="494"/>
  <unicode hex="2021"/>
  <outline>
    <contour>
      <point x="77" y="-200" type="line"/>
      <point x="259" y="-200" type="line"/>
      <point x="260" y="71" type="line"/>
      <point x="315" y="250" type="line"/>
      <point x="320" y="429" type="line"/>
      <point x="401" y="700" type="line"/>
      <point x="239" y="700" type="line"/>
      <point x="228" y="429" type="line"/>
      <point x="173" y="250" type="line"/>
      <point x="168" y="71" type="line"/>
    </contour>
    <contour>
      <point x="-8" y="-7" type="line"/>
      <point x="212" y="23" type="line"/>
      <point x="421" y="-7" type="line"/>
      <point x="447" y="149" type="line"/>
      <point x="228" y="119" type="line"/>
      <point x="18" y="149" type="line"/>
    </contour>
    <contour>
      <point x="46" y="351" type="line"/>
      <point x="266" y="381" type="line"/>
      <point x="475" y="351" type="line"/>
      <point x="501" y="507" type="line"/>
      <point x="282" y="477" type="line"/>
      <point x="72" y="507" type="line"/>
    </contour>
  </outline>
</glyph>
<glyph name="bullet" format="2">
  <advance width="449"/>
  <unicode hex="2022"/>
  <outline>
    <contour>
      <point x="220" y="155" type="curve" smooth="yes"/>
      <point x="289" y="155"/>
      <point x="352" y="209"/>
      <point x="364" y="277" type="curve" smooth="yes"/>
      <point x="377" y="356"/>
      <point x="321" y="420"/>
      <point x="240" y="420" type="curve" smooth="yes"/>
      <point x="172" y="420"/>
      <point x="109" y="366"/>
      <point x="98" y="299" type="curve" smooth="yes"/>
      <point x="85" y="219"/>
      <point x="140" y="155"/>
    </contour>
  </outline>
</glyph>
<glyph name="guilsinglleft" format="2">
  <advance width="442"/>
  <unicode hex="2039"/>
  <outline>
    <contour>
      <point x="53" y="298" type="line"/>
      <point x="267" y="298" type="line"/>
      <point x="434" y="500" type="line"/>
      <point x="228" y="500" type="line"/>
    </contour>
    <contour>
      <point x="162" y="96" type="line"/>
      <point x="366" y="96" type="line"/>
      <point x="267" y="298" type="line"/>
      <point x="53" y="298" type="line"/>
    </contour>
  </outline>
</glyph>
<glyph name="fraction" format="2">
  <advance width="226"/>
  <unicode hex="2044"/>
  <outline>
    <contour>
      <point x="-185" y="0" type="line"/>
      <point x="-70" y="0" type="line"/>
      <point x="411" y="700" type="line"/>
      <point x="296" y="700" type="line"/>
    </contour>
  </outline>
</glyph>
<glyph name="euro" format="2">
  <advance width="727"/>
  <unicode hex="20AC"/>
  <outline>
    <contour>
      <point x="382" y="-12" type="curve" smooth="yes"/>
      <point x="521" y="-12"/>
      <point x="638" y="69"/>
      <point x="703" y="196" type="curve"/>
      <point x="544" y="262" type="line"/>
      <point x="509" y="202"/>
      <point x="461" y="158"/>
      <point x="388" y="158" type="curve" smooth="yes"/>
      <point x="309" y="158"/>
      <point x="267" y="232"/>
      <point x="285" y="339" type="curve" smooth="yes"/>
      <point x="305" y="458"/>
      <point x="385" y="542"/>
      <point x="475" y="542" type="curve" smooth="yes"/>
      <point x="531" y="542"/>
      <point x="565" y="509"/>
      <point x="580" y="449" type="curve"/>
      <point x="747" y="495" type="line"/>
      <point x="723" y="621"/>
      <point x="628" y="712"/>
      <point x="479" y="712" type="curve" smooth="yes"/>
      <point x="288" y="712"/>
      <point x="133" y="567"/>
      <point x="99" y="361" type="curve" smooth="yes"/>
      <point x="62" y="143"/>
      <point x="179" y="-12"/>
    </contour>
    <contour>
      <point x="11" y="254" type="line"/>
      <point x="486" y="254" type="line"/>
      <point x="499" y="336" type="line"/>
      <point x="24" y="336" type="line"/>
    </contour>
    <contour>
      <point x="29" y="364" type="line"/>
      <point x="504" y="364" type="line"/>
      <point x="518" y="446" type="line"/>
      <point x="43" y="446" type="line"/>
    </contour>
  </outline>
</glyph>
<glyph name="trademark" format="2">
  <advance width="899"/>
  <unicode hex="2122"/>
  <outline>
    <contour>
      <point x="661" y="357" type="line"/>
      <point x="738" y="469" type="line"/>
      <point x="618" y="700" type="line"/>
      <point x="543" y="702" type="line"/>
      <point x="482" y="690" type="line"/>
    </contour>
    <contour>
      <point x="132" y="280" type="line"/>
      <point x="255" y="280" type="line"/>
      <point x="319" y="665" type="line"/>
      <point x="196" y="665" type="line"/>
    </contour>
    <contour>
      <point x="67" y="587" type="line"/>
      <point x="421" y="587" type="line"/>
      <point x="440" y="700" type="line"/>
      <point x="86" y="700" type="line"/>
    </contour>
    <contour>
      <point x="413" y="280" type="line"/>
      <point x="536" y="280" type="line"/>
      <point x="606" y="700" type="line"/>
      <point x="483" y="700" type="line"/>
    </contour>
    <contour>
      <point x="661" y="357" type="line"/>
      <point x="945" y="692" type="line"/>
      <point x="884" y="702" type="line"/>
      <point x="803" y="700" type="line"/>
      <point x="611" y="469" type="line"/>
    </contour>
    <contour>
      <point x="749" y="280" type="line"/>
      <point x="872" y="280" type="line"/>
      <point x="942" y="700" type="line"/>
      <point x="819" y="700" type="line"/>
    </contour>
  </outline>
</glyph>
<glyph name="upArrow" format="2">
  <advance width="764"/>
  <unicode hex="2191"/>
  <outline>
    <contour>
      <point x="214" y="335" type="line"/>
      <point x="519" y="576" type="line"/>
      <point x="458" y="712" type="line"/>
      <point x="122" y="443" type="line"/>
    </contour>
    <contour>
      <point x="585" y="331" type="line"/>
      <point x="705" y="437" type="line"/>
      <point x="458" y="712" type="line"/>
      <point x="355" y="577" type="line"/>
    </contour>
    <contour>
      <point x="267" y="0" type="line"/>
      <point x="417" y="0" type="line"/>
      <point x="521" y="619" type="line"/>
      <point x="371" y="619" type="line"/>
    </contour>
  </outline>
</glyph>
<glyph name="rightArrow" format="2">
  <advance width="758"/>
  <unicode hex="2192"/>
  <outline>
    <contour>
      <point x="565" y="217" type="line"/>
      <point x="710" y="297" type="line"/>
      <point x="487" y="592" type="line"/>
      <point x="366" y="486" type="line"/>
    </contour>
    <contour>
      <point x="392" y="8" type="line"/>
      <point x="712" y="297" type="line"/>
      <point x="586" y="381" type="line"/>
      <point x="299" y="115" type="line"/>
    </contour>
    <contour>
      <point x="55" y="223" type="line"/>
      <point x="605" y="223" type="line"/>
      <point x="631" y="373" type="line"/>
      <point x="81" y="373" type="line"/>
    </contour>
  </outline>
</glyph>
<glyph name="northWestArrow" format="2">
  <advance width="628"/>
  <unicode hex="2196"/>
  <outline>
    <contour>
      <point x="456" y="191" type="line"/>
      <point x="576" y="297" type="line"/>
      <point x="248" y="686" type="line"/>
      <point x="128" y="580" type="line"/>
    </contour>
    <contour>
      <point x="511" y="554" type="line"/>
      <point x="535" y="700" type="line"/>
      <point x="137" y="700" type="line"/>
      <point x="150" y="556" type="line"/>
    </contour>
    <contour>
      <point x="214" y="300" type="line"/>
      <point x="273" y="663" type="line"/>
      <point x="137" y="700" type="line"/>
      <point x="68" y="300" type="line"/>
    </contour>
  </outline>
</glyph>
<glyph name="northEastArrow" format="2">
  <advance width="628"/>
  <unicode hex="2197"/>
  <outline>
    <contour>
      <point x="160" y="191" type="line"/>
      <point x="610" y="580" type="line"/>
      <point x="518" y="686" type="line"/>
      <point x="68" y="297" type="line"/>
    </contour>
    <contour>
      <point x="219" y="554" type="line"/>
      <point x="584" y="556" type="line"/>
      <point x="643" y="700" type="line"/>
      <point x="243" y="700" type="line"/>
    </contour>
    <contour>
      <point x="430" y="300" type="line"/>
      <point x="576" y="300" type="line"/>
      <point x="643" y="700" type="line"/>
      <point x="493" y="663" type="line"/>
    </contour>
  </outline>
</glyph>
<glyph name="southEastArrow" format="2">
  <advance width="629"/>
  <unicode hex="2198"/>
  <outline>
    <contour>
      <point x="85" y="402" type="line"/>
      <point x="413" y="13" type="line"/>
      <point x="532" y="119" type="line"/>
      <point x="204" y="508" type="line"/>
    </contour>
    <contour>
      <point x="447" y="400" type="line"/>
      <point x="389" y="37" type="line"/>
      <point x="527" y="0" type="line"/>
      <point x="593" y="400" type="line"/>
    </contour>
    <contour>
      <point x="151" y="146" type="line"/>
      <point x="126" y="0" type="line"/>
      <point x="525" y="0" type="line"/>
      <point x="512" y="144" type="line"/>
    </contour>
  </outline>
</glyph>
<glyph name="southWestArrow" format="2">
  <advance width="628"/>
  <unicode hex="2199"/>
  <outline>
    <contour>
      <point x="144" y="14" type="line"/>
      <point x="594" y="403" type="line"/>
      <point x="501" y="509" type="line"/>
      <point x="51" y="120" type="line"/>
    </contour>
    <contour>
      <point x="19" y="0" type="line"/>
      <point x="169" y="37" type="line"/>
      <point x="231" y="400" type="line"/>
      <point x="85" y="400" type="line"/>
    </contour>
    <contour>
      <point x="19" y="0" type="line"/>
      <point x="418" y="0" type="line"/>
      <point x="443" y="146" type="line"/>
      <point x="78" y="144" type="line"/>
    </contour>
  </outline>
</glyph>
<glyph name="minus" format="2">
  <advance width="640"/>
  <unicode hex="2212"/>
  <outline>
    <contour>
      <point x="121" y="226" type="line"/>
      <point x="511" y="226" type="line"/>
      <point x="535" y="370" type="line"/>
      <point x="145" y="370" type="line"/>
    </contour>
  </outline>
</glyph>
<glyph name="divisionslash" format="2">
  <advance width="640"/>
  <unicode hex="2215"/>
  <outline>
    <contour>
      <point x="-16" y="0" type="line"/>
      <point x="92" y="0" type="line"/>
      <point x="690" y="700" type="line"/>
      <point x="582" y="700" type="line"/>
    </contour>
  </outline>
</glyph>
<glyph name="notequal" format="2">
  <advance width="640"/>
  <unicode hex="2260"/>
  <outline>
    <contour>
      <point x="92" y="74" type="line"/>
      <point x="234" y="74" type="line"/>
      <point x="575" y="586" type="line"/>
      <point x="434" y="586" type="line"/>
    </contour>
    <component base="equal" xScale="0.998" xOffset="6.0" yOffset="33.0"/>
  </outline>
</glyph>
<glyph name="lessequal" format="2">
  <advance width="640"/>
  <unicode hex="2264"/>
  <outline>
    <contour>
      <point x="77" y="0" type="line"/>
      <point x="477" y="0" type="line"/>
      <point x="497" y="120" type="line"/>
      <point x="97" y="120" type="line"/>
    </contour>
    <component base="greater" xScale="-0.9974620182565109" xyScale="-0.008704719159627335" yxScale="0.007853881948535943" yScale="-0.8999657307577542" xOffset="661.0" yOffset="627.0"/>
  </outline>
</glyph>
<glyph name="greaterequal" format="2">
  <advance width="640"/>
  <unicode hex="2265"/>
  <outline>
    <contour>
      <point x="80" y="0" type="line"/>
      <point x="480" y="0" type="line"/>
      <point x="500" y="120" type="line"/>
      <point x="100" y="120" type="line"/>
    </contour>
    <component base="greater" xScale="0.9974620182565109" xyScale="0.008704719159628" yxScale="-0.007853881948536541" yScale="0.8999657307577542" xOffset="15.0" yOffset="89.0"/>
  </outline>
</glyph>
<glyph name="Bowl" format="2">
  <advance width="576"/>
  <outline>
    <contour>
      <point x="194" y="-12" type="curve" smooth="yes"/>
      <point x="373" y="-12"/>
      <point x="418" y="199"/>
      <point x="418" y="339" type="curve" smooth="yes"/>
      <point x="418" y="449"/>
      <point x="370" y="512"/>
      <point x="267" y="512" type="curve" smooth="yes"/>
      <point x="83" y="512"/>
      <point x="-4" y="367"/>
      <point x="-4" y="181" type="curve" smooth="yes"/>
      <point x="-4" y="65"/>
      <point x="84" y="-12"/>
    </contour>
    <contour>
      <point x="260" y="154" type="curve" smooth="yes"/>
      <point x="216" y="154"/>
      <point x="189" y="186"/>
      <point x="189" y="232" type="curve" smooth="yes"/>
      <point x="189" y="290"/>
      <point x="233" y="345"/>
      <point x="291" y="345" type="curve" smooth="yes"/>
      <point x="336" y="345"/>
      <point x="364" y="315"/>
      <point x="364" y="270" type="curve" smooth="yes"/>
      <point x="364" y="211"/>
      <point x="320" y="154"/>
    </contour>
  </outline>
</glyph>
<glyph name="I.ss02" format="2">
  <advance width="465"/>
  <anchor x="193" y="0" name="bottom"/>
  <anchor x="293" y="0" name="ogonek"/>
  <anchor x="310" y="700" name="top"/>
  <anchor x="165" y="700" name="topleft"/>
  <outline>
    <contour>
      <point x="-12" y="0" type="line"/>
      <point x="393" y="0" type="line"/>
      <point x="422" y="170" type="line"/>
      <point x="312" y="170" type="line"/>
      <point x="372" y="530" type="line"/>
      <point x="482" y="530" type="line"/>
      <point x="510" y="700" type="line"/>
      <point x="105" y="700" type="line"/>
      <point x="77" y="530" type="line"/>
      <point x="187" y="530" type="line"/>
      <point x="127" y="170" type="line"/>
      <point x="17" y="170" type="line"/>
    </contour>
  </outline>
</glyph>
<glyph name="Idieresis.ss02" format="2">
  <advance width="465"/>
  <anchor x="245" y="700" name="_top"/>
  <anchor x="245" y="948" name="top"/>
  <anchor x="193" y="0" name="bottom"/>
  <anchor x="293" y="0" name="ogonek"/>
  <anchor x="165" y="700" name="topleft"/>
  <outline>
    <contour>
      <point x="434" y="769" type="curve" smooth="yes"/>
      <point x="481" y="769"/>
      <point x="522" y="810"/>
      <point x="522" y="857" type="curve" smooth="yes"/>
      <point x="522" y="904"/>
      <point x="481" y="945"/>
      <point x="434" y="945" type="curve" smooth="yes"/>
      <point x="387" y="945"/>
      <point x="346" y="904"/>
      <point x="346" y="857" type="curve" smooth="yes"/>
      <point x="346" y="810"/>
      <point x="387" y="769"/>
    </contour>
    <contour>
      <point x="234" y="769" type="curve" smooth="yes"/>
      <point x="282" y="769"/>
      <point x="322" y="809"/>
      <point x="322" y="857" type="curve" smooth="yes"/>
      <point x="322" y="905"/>
      <point x="282" y="945"/>
      <point x="234" y="945" type="curve" smooth="yes"/>
      <point x="186" y="945"/>
      <point x="146" y="905"/>
      <point x="146" y="857" type="curve" smooth="yes"/>
      <point x="146" y="809"/>
      <point x="186" y="769"/>
    </contour>
    <component base="I.ss02"/>
  </outline>
</glyph>
<glyph name="a.ss01" format="2">
  <advance width="606"/>
  <anchor x="512" y="0" name="ogonek"/>
  <anchor x="310" y="500" name="top"/>
  <outline>
    <contour>
      <point x="348" y="0" type="line"/>
      <point x="519" y="0" type="line"/>
      <point x="603" y="500" type="line"/>
      <point x="423" y="500" type="line"/>
      <point x="355" y="93" type="line"/>
    </contour>
    <component base="Bowl" xOffset="11"/>
  </outline>
</glyph>
<glyph name="arch" format="2">
  <advance width="362"/>
  <outline>
    <contour>
      <point x="183" y="256" type="curve"/>
      <point x="363" y="256" type="line"/>
      <point x="368" y="286" type="line"/>
      <point x="394" y="440"/>
      <point x="348" y="512"/>
      <point x="226" y="512" type="curve" smooth="yes"/>
      <point x="122" y="512"/>
      <point x="29" y="424"/>
      <point x="3" y="266" type="curve"/>
      <point x="52" y="266" type="line"/>
      <point x="61" y="320"/>
      <point x="90" y="345"/>
      <point x="141" y="343" type="curve" smooth="yes"/>
      <point x="178" y="341"/>
      <point x="193" y="313"/>
    </contour>
  </outline>
</glyph>
<glyph name="caroncomb.alt" format="2">
  <anchor x="61" y="700" name="_top_caron"/>
  <outline>
    <contour>
      <point x="51" y="552" type="line"/>
      <point x="183" y="552" type="line"/>
      <point x="251" y="700" type="line"/>
      <point x="98" y="700" type="line"/>
    </contour>
  </outline>
</glyph>
<glyph name="dollar.BRACKET.550" format="2">
  <advance width="546"/>
  <outline>
    <contour>
      <point x="252" y="24" type="curve" smooth="yes"/>
      <point x="394" y="24"/>
      <point x="488" y="89"/>
      <point x="508" y="207" type="curve" smooth="yes"/>
      <point x="524" y="303"/>
      <point x="474" y="382"/>
      <point x="382" y="407" type="curve" smooth="yes"/>
      <point x="291" y="432" type="line" smooth="yes"/>
      <point x="259" y="441"/>
      <point x="249" y="453"/>
      <point x="252" y="469" type="curve" smooth="yes"/>
      <point x="258" y="509"/>
      <point x="291" y="533"/>
      <point x="338" y="533" type="curve" smooth="yes"/>
      <point x="374" y="533"/>
      <point x="390" y="507"/>
      <point x="392" y="484" type="curve"/>
      <point x="559" y="521" type="line"/>
      <point x="534" y="628"/>
      <point x="461" y="676"/>
      <point x="337" y="676" type="curve" smooth="yes"/>
      <point x="195" y="676"/>
      <point x="104" y="608"/>
      <point x="84" y="491" type="curve" smooth="yes"/>
      <point x="68" y="390"/>
      <point x="117" y="318"/>
      <point x="211" y="293" type="curve" smooth="yes"/>
      <point x="303" y="269" type="line" smooth="yes"/>
      <point x="333" y="261"/>
      <point x="339" y="244"/>
      <point x="337" y="230" type="curve" smooth="yes"/>
      <point x="330" y="192"/>
      <point x="289" y="166"/>
      <point x="250" y="167" type="curve" smooth="yes"/>
      <point x="213" y="169"/>
      <point x="195" y="188"/>
      <point x="190" y="218" type="curve"/>
      <point x="20" y="182" type="line"/>
      <point x="20" y="100"/>
      <point x="128" y="24"/>
    </contour>
    <contour>
      <point x="150" y="-103" type="line"/>
      <point x="294" y="-103" type="line"/>
      <point x="327" y="94" type="line"/>
      <point x="183" y="94" type="line"/>
    </contour>
    <contour>
      <point x="265" y="583" type="line"/>
      <point x="409" y="583" type="line"/>
      <point x="442" y="780" type="line"/>
      <point x="298" y="780" type="line"/>
    </contour>
  </outline>
</glyph>
<glyph name="eight.numr" format="2">
  <advance width="377"/>
  <outline>
    <contour>
      <point x="200" y="273" type="curve" smooth="yes"/>
      <point x="310" y="273"/>
      <point x="367" y="317"/>
      <point x="378" y="380" type="curve" smooth="yes"/>
      <point x="392" y="463"/>
      <point x="345" y="519"/>
      <point x="225" y="519" type="curve" smooth="yes"/>
      <point x="112" y="519"/>
      <point x="57" y="468"/>
      <point x="45" y="396" type="curve" smooth="yes"/>
      <point x="33" y="326"/>
      <point x="78" y="273"/>
    </contour>
    <contour>
      <point x="200" y="373" type="curve" smooth="yes"/>
      <point x="181" y="373"/>
      <point x="170" y="385"/>
      <point x="172" y="400" type="curve" smooth="yes"/>
      <point x="177" y="430"/>
      <point x="203" y="450"/>
      <point x="230" y="450" type="curve" smooth="yes"/>
      <point x="249" y="450"/>
      <point x="261" y="438"/>
      <point x="257" y="414" type="curve" smooth="yes"/>
      <point x="253" y="391"/>
      <point x="228" y="373"/>
    </contour>
    <contour>
      <point x="228" y="540" type="curve" smooth="yes"/>
      <point x="208" y="540"/>
      <point x="203" y="556"/>
      <point x="205" y="568" type="curve" smooth="yes"/>
      <point x="209" y="594"/>
      <point x="229" y="612"/>
      <point x="256" y="612" type="curve" smooth="yes"/>
      <point x="274" y="612"/>
      <point x="284" y="601"/>
      <point x="281" y="584" type="curve" smooth="yes"/>
      <point x="277" y="559"/>
      <point x="254" y="540"/>
    </contour>
    <contour>
      <point x="235" y="482" type="curve" smooth="yes"/>
      <point x="334" y="482"/>
      <point x="391" y="524"/>
      <point x="401" y="585" type="curve" smooth="yes"/>
      <point x="413" y="657"/>
      <point x="364" y="707"/>
      <point x="256" y="707" type="curve" smooth="yes"/>
      <point x="159" y="707"/>
      <point x="101" y="664"/>
      <point x="91" y="603" type="curve" smooth="yes"/>
      <point x="79" y="528"/>
      <point x="129" y="482"/>
    </contour>
  </outline>
</glyph>
<glyph name="five.numr" format="2">
  <advance width="364"/>
  <outline>
    <contour>
      <point x="196" y="273" type="curve" smooth="yes"/>
      <point x="284" y="273"/>
      <point x="357" y="332"/>
      <point x="371" y="416" type="curve" smooth="yes"/>
      <point x="384" y="494"/>
      <point x="336" y="545"/>
      <point x="274" y="547" type="curve" smooth="yes"/>
      <point x="185" y="550"/>
      <point x="134" y="487"/>
      <point x="122" y="464" type="curve"/>
      <point x="172" y="445" type="line"/>
      <point x="259" y="696" type="line"/>
      <point x="138" y="696" type="line"/>
      <point x="142" y="588" type="line"/>
      <point x="374" y="588" type="line"/>
      <point x="392" y="700" type="line"/>
      <point x="138" y="700" type="line"/>
      <point x="66" y="460" type="line"/>
      <point x="174" y="433" type="line"/>
      <point x="180" y="443"/>
      <point x="194" y="458"/>
      <point x="217" y="458" type="curve" smooth="yes"/>
      <point x="238" y="458"/>
      <point x="246" y="442"/>
      <point x="244" y="426" type="curve" smooth="yes"/>
      <point x="239" y="397"/>
      <point x="216" y="379"/>
      <point x="189" y="379" type="curve" smooth="yes"/>
      <point x="177" y="379"/>
      <point x="164" y="382"/>
      <point x="164" y="395" type="curve"/>
      <point x="43" y="381" type="line"/>
      <point x="47" y="313"/>
      <point x="126" y="273"/>
    </contour>
  </outline>
</glyph>
<glyph name="four.numr" format="2">
  <advance width="400"/>
  <outline>
    <contour>
      <point x="123" y="394" type="line"/>
      <point x="321" y="632" type="line"/>
      <point x="265" y="700" type="line"/>
      <point x="40" y="437" type="line"/>
    </contour>
    <contour>
      <point x="23" y="337" type="line"/>
      <point x="393" y="337" type="line"/>
      <point x="411" y="441" type="line"/>
      <point x="104" y="441" type="line"/>
      <point x="40" y="437" type="line"/>
    </contour>
    <contour>
      <point x="211" y="280" type="line"/>
      <point x="326" y="280" type="line"/>
      <point x="397" y="700" type="line"/>
      <point x="265" y="700" type="line"/>
      <point x="272" y="638" type="line"/>
    </contour>
  </outline>
</glyph>
<glyph name="l.ss02" format="2">
  <advance width="330"/>
  <anchor x="103" y="0" name="bottom"/>
  <anchor x="210" y="700" name="top"/>
  <anchor x="302" y="700" name="top_caron"/>
  <outline>
    <contour>
      <point x="187" y="-12" type="curve" smooth="yes"/>
      <point x="224" y="-12"/>
      <point x="276" y="9"/>
      <point x="309" y="36" type="curve"/>
      <point x="260" y="174" type="line"/>
      <point x="255" y="170"/>
      <point x="239" y="160"/>
      <point x="226" y="160" type="curve" smooth="yes"/>
      <point x="212" y="160"/>
      <point x="211" y="168"/>
      <point x="217" y="202" type="curve" smooth="yes"/>
      <point x="300" y="700" type="line"/>
      <point x="120" y="700" type="line"/>
      <point x="31" y="163" type="line" smooth="yes"/>
      <point x="13" y="53"/>
      <point x="63" y="-12"/>
    </contour>
  </outline>
</glyph>
<glyph name="lslash.ss02" format="2">
  <advance width="347"/>
  <anchor x="115" y="0" name="bottom"/>
  <anchor x="222" y="700" name="top"/>
  <anchor x="314" y="700" name="top_caron"/>
  <outline>
    <contour>
      <point x="-5" y="204" type="line"/>
      <point x="310" y="358" type="line"/>
      <point x="331" y="496" type="line"/>
      <point x="15" y="342" type="line"/>
    </contour>
    <component base="l.ss02" xOffset="12"/>
  </outline>
</glyph>
<glyph name="macroncomb.narrow" format="2">
  <anchor x="212" y="500" name="_top"/>
  <outline>
    <contour>
      <point x="50" y="549" type="line"/>
      <point x="390" y="549" type="line"/>
      <point x="415" y="700" type="line"/>
      <point x="75" y="700" type="line"/>
    </contour>
  </outline>
</glyph>
<glyph name="nine.numr" format="2">
  <advance width="367"/>
  <outline>
    <contour>
      <point x="173" y="272" type="curve" smooth="yes"/>
      <point x="305" y="272"/>
      <point x="369" y="387"/>
      <point x="390" y="511" type="curve" smooth="yes"/>
      <point x="409" y="624"/>
      <point x="364" y="707"/>
      <point x="251" y="707" type="curve" smooth="yes"/>
      <point x="153" y="707"/>
      <point x="89" y="651"/>
      <point x="76" y="576" type="curve" smooth="yes"/>
      <point x="62" y="493"/>
      <point x="112" y="423"/>
      <point x="194" y="423" type="curve" smooth="yes"/>
      <point x="234" y="423"/>
      <point x="270" y="444"/>
      <point x="296" y="484" type="curve"/>
      <point x="272" y="502" type="line"/>
      <point x="257" y="415"/>
      <point x="217" y="379"/>
      <point x="177" y="379" type="curve" smooth="yes"/>
      <point x="166" y="379"/>
      <point x="136" y="381"/>
      <point x="112" y="398" type="curve"/>
      <point x="46" y="311" type="line"/>
      <point x="79" y="287"/>
      <point x="122" y="272"/>
    </contour>
    <contour>
      <point x="220" y="520" type="curve" smooth="yes"/>
      <point x="204" y="520"/>
      <point x="192" y="537"/>
      <point x="195" y="555" type="curve" smooth="yes"/>
      <point x="199" y="583"/>
      <point x="224" y="605"/>
      <point x="250" y="605" type="curve" smooth="yes"/>
      <point x="267" y="605"/>
      <point x="279" y="591"/>
      <point x="275" y="569" type="curve" smooth="yes"/>
      <point x="271" y="544"/>
      <point x="244" y="520"/>
    </contour>
  </outline>
</glyph>
<glyph name="ogonekcomb.alt" format="2">
  <anchor x="181" y="50" name="_ogonek"/>
  <outline>
    <contour>
      <point x="131" y="-212" type="curve" smooth="yes"/>
      <point x="158" y="-212"/>
      <point x="182" y="-211"/>
      <point x="204" y="-199" type="curve"/>
      <point x="158" y="-87" type="line"/>
      <point x="148" y="-91"/>
      <point x="137" y="-96"/>
      <point x="119" y="-96" type="curve" smooth="yes"/>
      <point x="106" y="-96"/>
      <point x="95" y="-88"/>
      <point x="95" y="-71" type="curve" smooth="yes"/>
      <point x="95" y="-39"/>
      <point x="116" y="-3"/>
      <point x="188" y="56" type="curve"/>
      <point x="149" y="63" type="line"/>
      <point x="76" y="23"/>
      <point x="-38" y="-24"/>
      <point x="-38" y="-109" type="curve" smooth="yes"/>
      <point x="-38" y="-177"/>
      <point x="37" y="-212"/>
    </contour>
  </outline>
</glyph>
<glyph name="one.numr" format="2">
  <advance width="283"/>
  <outline>
    <contour>
      <point x="116" y="280" type="line"/>
      <point x="232" y="280" type="line"/>
      <point x="302" y="700" type="line"/>
      <point x="198" y="700" type="line"/>
      <point x="175" y="634" type="line"/>
    </contour>
    <contour>
      <point x="76" y="536" type="line"/>
      <point x="146" y="527"/>
      <point x="210" y="570"/>
      <point x="268" y="626" type="curve"/>
      <point x="198" y="700" type="line"/>
      <point x="174" y="675"/>
      <point x="129" y="642"/>
      <point x="95" y="646" type="curve"/>
    </contour>
  </outline>
</glyph>
<glyph name="one.tf" format="2">
  <advance width="640"/>
  <outline>
    <contour>
      <point x="71" y="0" type="line"/>
      <point x="526" y="0" type="line"/>
      <point x="553" y="162" type="line"/>
      <point x="98" y="162" type="line"/>
    </contour>
    <component base="one" xOffset="71"/>
  </outline>
</glyph>
<glyph name="seven.numr" format="2">
  <advance width="357"/>
  <outline>
    <contour>
      <point x="74" y="280" type="line"/>
      <point x="213" y="280" type="line"/>
      <point x="397" y="615" type="line"/>
      <point x="251" y="587" type="line"/>
    </contour>
    <contour>
      <point x="75" y="587" type="line"/>
      <point x="251" y="587" type="line"/>
      <point x="397" y="615" type="line"/>
      <point x="411" y="700" type="line"/>
      <point x="93" y="700" type="line"/>
    </contour>
  </outline>
</glyph>
<glyph name="six.numr" format="2">
  <advance width="366"/>
  <outline>
    <contour>
      <point x="196" y="273" type="curve" smooth="yes"/>
      <point x="294" y="273"/>
      <point x="358" y="328"/>
      <point x="371" y="403" type="curve" smooth="yes"/>
      <point x="385" y="486"/>
      <point x="336" y="556"/>
      <point x="253" y="556" type="curve" smooth="yes"/>
      <point x="212" y="556"/>
      <point x="176" y="534"/>
      <point x="151" y="496" type="curve"/>
      <point x="175" y="477" type="line"/>
      <point x="191" y="569"/>
      <point x="233" y="600"/>
      <point x="270" y="600" type="curve" smooth="yes"/>
      <point x="284" y="600"/>
      <point x="313" y="597"/>
      <point x="335" y="581" type="curve"/>
      <point x="401" y="668" type="line"/>
      <point x="368" y="692"/>
      <point x="326" y="707"/>
      <point x="274" y="707" type="curve" smooth="yes"/>
      <point x="142" y="707"/>
      <point x="78" y="592"/>
      <point x="57" y="468" type="curve" smooth="yes"/>
      <point x="38" y="355"/>
      <point x="84" y="273"/>
    </contour>
    <contour>
      <point x="198" y="375" type="curve" smooth="yes"/>
      <point x="181" y="375"/>
      <point x="168" y="388"/>
      <point x="172" y="409" type="curve" smooth="yes"/>
      <point x="176" y="435"/>
      <point x="202" y="459"/>
      <point x="228" y="459" type="curve" smooth="yes"/>
      <point x="244" y="459"/>
      <point x="255" y="442"/>
      <point x="252" y="423" type="curve" smooth="yes"/>
      <point x="248" y="397"/>
      <point x="223" y="375"/>
    </contour>
  </outline>
</glyph>
<glyph name="three.numr" format="2">
  <advance width="343"/>
  <outline>
    <contour>
      <point x="190" y="273" type="curve" smooth="yes"/>
      <point x="259" y="273"/>
      <point x="337" y="309"/>
      <point x="349" y="384" type="curve" smooth="yes"/>
      <point x="362" y="460"/>
      <point x="278" y="516"/>
      <point x="190" y="516" type="curve" smooth="yes"/>
      <point x="158" y="516" type="line"/>
      <point x="144" y="440" type="line"/>
      <point x="191" y="440" type="line" smooth="yes"/>
      <point x="228" y="440"/>
      <point x="232" y="424"/>
      <point x="232" y="418" type="curve" smooth="yes"/>
      <point x="232" y="396"/>
      <point x="214" y="378"/>
      <point x="183" y="378" type="curve" smooth="yes"/>
      <point x="152" y="378"/>
      <point x="155" y="404"/>
      <point x="154" y="417" type="curve"/>
      <point x="33" y="402" type="line"/>
      <point x="28" y="317"/>
      <point x="95" y="273"/>
    </contour>
    <contour>
      <point x="149" y="469" type="line"/>
      <point x="191" y="469" type="line" smooth="yes"/>
      <point x="266" y="469"/>
      <point x="363" y="497"/>
      <point x="377" y="582" type="curve" smooth="yes"/>
      <point x="389" y="652"/>
      <point x="331" y="707"/>
      <point x="241" y="707" type="curve" smooth="yes"/>
      <point x="173" y="707"/>
      <point x="88" y="669"/>
      <point x="65" y="583" type="curve"/>
      <point x="181" y="554" type="line"/>
      <point x="191" y="593"/>
      <point x="213" y="602"/>
      <point x="231" y="602" type="curve" smooth="yes"/>
      <point x="241" y="602"/>
      <point x="255" y="591"/>
      <point x="255" y="581" type="curve" smooth="yes"/>
      <point x="255" y="549"/>
      <point x="232" y="538"/>
      <point x="199" y="538" type="curve" smooth="yes"/>
      <point x="161" y="538" type="line"/>
    </contour>
  </outline>
</glyph>
<glyph name="two.numr" format="2">
  <advance width="373"/>
  <outline>
    <contour>
      <point x="155" y="279" type="line"/>
      <point x="166" y="356"/>
      <point x="225" y="396"/>
      <point x="262" y="416" type="curve" smooth="yes"/>
      <point x="290" y="431" type="line" smooth="yes"/>
      <point x="348" y="462"/>
      <point x="390" y="501"/>
      <point x="400" y="561" type="curve" smooth="yes"/>
      <point x="414" y="643"/>
      <point x="362" y="708"/>
      <point x="249" y="708" type="curve" smooth="yes"/>
      <point x="157" y="708"/>
      <point x="91" y="651"/>
      <point x="70" y="584" type="curve"/>
      <point x="194" y="557" type="line"/>
      <point x="204" y="581"/>
      <point x="225" y="599"/>
      <point x="248" y="599" type="curve" smooth="yes"/>
      <point x="269" y="599"/>
      <point x="277" y="590"/>
      <point x="277" y="577" type="curve" smooth="yes"/>
      <point x="277" y="552"/>
      <point x="240" y="529"/>
      <point x="210" y="513" type="curve" smooth="yes"/>
      <point x="173" y="493" type="line" smooth="yes"/>
      <point x="109" y="459"/>
      <point x="55" y="405"/>
      <point x="49" y="369" type="curve"/>
    </contour>
    <contour>
      <point x="34" y="280" type="line"/>
      <point x="357" y="280" type="line"/>
      <point x="375" y="388" type="line"/>
      <point x="143" y="388" type="line"/>
      <point x="49" y="369" type="line"/>
    </contour>
  </outline>
</glyph>
<glyph name="zero.numr" format="2">
  <advance width="406"/>
  <outline>
    <contour>
      <point x="214" y="273" type="curve" smooth="yes"/>
      <point x="320" y="273"/>
      <point x="407" y="362"/>
      <point x="427" y="483" type="curve" smooth="yes"/>
      <point x="449" y="614"/>
      <point x="383" y="707"/>
      <point x="269" y="707" type="curve" smooth="yes"/>
      <point x="167" y="707"/>
      <point x="81" y="622"/>
      <point x="60" y="498" type="curve" smooth="yes"/>
      <point x="38" y="366"/>
      <point x="102" y="273"/>
    </contour>
    <contour>
      <point x="217" y="385" type="curve" smooth="yes"/>
      <point x="183" y="385"/>
      <point x="167" y="425"/>
      <point x="177" y="483" type="curve" smooth="yes"/>
      <point x="188" y="549"/>
      <point x="226" y="597"/>
      <point x="267" y="597" type="curve" smooth="yes"/>
      <point x="303" y="597"/>
      <point x="320" y="556"/>
      <point x="310" y="497" type="curve" smooth="yes"/>
      <point x="299" y="431"/>
      <point x="259" y="385"/>
    </contour>
  </outline>
</glyph>
<glyph name="zero.ss02" format="2">
  <advance width="657"/>
  <outline>
    <contour>
      <point x="66" y="154" type="line"/>
      <point x="219" y="154" type="line"/>
      <point x="620" y="546" type="line"/>
      <point x="465" y="546" type="line"/>
    </contour>
    <component base="zero"/>
  </outline>
</glyph>
<glyph name="zero.tf.ss02" format="2">
  <advance width="640"/>
  <outline>
    <contour>
      <point x="66" y="154" type="line"/>
      <point x="219" y="154" type="line"/>
      <point x="620" y="546" type="line"/>
      <point x="465" y="546" type="line"/>
    </contour>
    <component base="zero" xOffset="-8"/>
  </outline>
</glyph>
